<svg width="24" height="22" viewBox="0 0 24 22" fill="none" xmlns="http://www.w3.org/2000/svg">
<path d="M20.4643 20.8667H3.53544C2.61806 20.8667 1.79759 20.3943 1.34069 19.6029C0.885577 18.8147 0.886572 17.8718 1.34288 17.0812L9.80749 2.42671C10.264 1.63609 11.0819 1.16406 11.9953 1.16406C12.9125 1.16406 13.7339 1.63828 14.1928 2.43288L22.6568 17.0812C23.1135 17.8718 23.1143 18.8147 22.6594 19.6029C22.2019 20.3945 21.3819 20.8667 20.4643 20.8667ZM11.9951 1.85976C11.3332 1.85976 10.7404 2.20184 10.4097 2.77476L1.94505 17.429C1.61451 18.0021 1.61371 18.6847 1.94286 19.2552C2.27399 19.829 2.8694 20.1714 3.53524 20.1714H20.4641C21.1299 20.1714 21.7253 19.829 22.0565 19.2552C22.3858 18.6847 22.385 18.0021 22.0541 17.429L13.5899 2.78073C13.5899 2.78073 13.5899 2.78073 13.5897 2.78073C13.2571 2.20403 12.6607 1.85976 11.9951 1.85976Z" fill="#CD666D" stroke="#CD666D" stroke-width="0.4"/>
<path d="M12.1942 18.4325C11.4143 18.4325 10.7795 17.7981 10.7795 17.0178C10.7795 16.2375 11.4141 15.6029 12.1942 15.6029C12.9743 15.6029 13.6089 16.2375 13.6089 17.0178C13.6089 17.7981 12.9743 18.4325 12.1942 18.4325ZM12.1942 16.2986C11.7978 16.2986 11.4752 16.6212 11.4752 17.018C11.4752 17.4142 11.7976 17.737 12.1942 17.737C12.5908 17.737 12.9134 17.4144 12.9134 17.018C12.9134 16.6212 12.5906 16.2986 12.1942 16.2986Z" fill="#CD666D" stroke="#CD666D" stroke-width="0.4"/>
<path d="M12.1941 14.5199C11.6299 14.5199 11.1547 14.0791 11.1123 13.5165L10.6813 7.80469C10.6495 7.3848 10.7955 6.9671 11.0817 6.65865C11.3679 6.35001 11.7734 6.1731 12.1941 6.1731C12.615 6.1731 13.0205 6.35001 13.3067 6.65865C13.5929 6.9671 13.7387 7.3848 13.7071 7.80469L13.2761 13.5165C13.2335 14.0791 12.7583 14.5199 12.1941 14.5199ZM12.1941 6.86879C11.9629 6.86879 11.7487 6.96213 11.5915 7.13167C11.4343 7.30162 11.3573 7.52191 11.3748 7.75255L11.8058 13.4644C11.8212 13.666 11.9915 13.8242 12.1939 13.8242C12.3965 13.8242 12.567 13.666 12.5821 13.4644L13.0132 7.75255C13.0307 7.52191 12.9537 7.30142 12.7965 7.13167C12.6395 6.96213 12.4253 6.86879 12.1941 6.86879Z" fill="#CD666D" stroke="#CD666D" stroke-width="0.4"/>
</svg>
