<svg width="28" height="28" viewBox="0 0 28 28" fill="none" xmlns="http://www.w3.org/2000/svg">
<path d="M3.70588 28C2.72336 27.9989 1.7814 27.6081 1.08666 26.9133C0.391909 26.2186 0.00111163 25.2766 0 24.2941V3.70588C0.00111163 2.72336 0.391909 1.7814 1.08666 1.08666C1.7814 0.391909 2.72336 0.00111163 3.70588 0H24.2941C25.2766 0.00111163 26.2186 0.391909 26.9133 1.08666C27.6081 1.7814 27.9989 2.72336 28 3.70588V24.2941C27.9989 25.2766 27.6081 26.2186 26.9133 26.9133C26.2186 27.6081 25.2766 27.9989 24.2941 28H3.70588ZM3.70588 1.52941C3.12885 1.53006 2.57563 1.75957 2.1676 2.1676C1.75957 2.57563 1.53006 3.12885 1.52941 3.70588V24.2941C1.53006 24.8712 1.75957 25.4244 2.1676 25.8324C2.57563 26.2404 3.12885 26.4699 3.70588 26.4706H24.2941C24.8712 26.4699 25.4244 26.2404 25.8324 25.8324C26.2404 25.4244 26.4699 24.8712 26.4706 24.2941V3.70588C26.4699 3.12884 26.2404 2.57562 25.8324 2.1676C25.4244 1.75957 24.8712 1.53005 24.2941 1.52941H3.70588Z" fill="#ffffff"/>
<path d="M20.935 22.9412C12.1808 22.9412 5.05884 15.8192 5.05884 7.06504C5.05944 6.53315 5.271 6.02321 5.64711 5.64711C6.02321 5.271 6.53315 5.05944 7.06504 5.05884H10.0991C10.631 5.05944 11.1409 5.271 11.517 5.64711C11.8931 6.02321 12.1047 6.53315 12.1053 7.06504C12.104 7.99498 12.2515 8.91913 12.5422 9.80246L12.5456 9.81309C12.6542 10.1565 12.669 10.5226 12.5885 10.8736C12.5081 11.2246 12.3352 11.5478 12.0879 11.8095L11.0149 13.2353C11.9655 14.8968 13.0914 16.022 14.7649 16.9833L16.2329 15.8747C16.7352 15.3981 17.519 15.2352 18.205 15.4696C19.0861 15.7589 20.0077 15.9053 20.935 15.9034C21.4669 15.904 21.9769 16.1156 22.3529 16.4917C22.729 16.8678 22.9406 17.3777 22.9412 17.9096V20.935C22.9406 21.4669 22.729 21.9768 22.353 22.3529C21.9769 22.729 21.4669 22.9406 20.935 22.9412ZM7.06504 6.4706C6.90744 6.47078 6.75635 6.53346 6.64491 6.6449C6.53347 6.75635 6.47078 6.90744 6.4706 7.06504C6.4706 15.0407 12.9593 21.5294 20.935 21.5294C21.0926 21.5292 21.2437 21.4666 21.3551 21.3551C21.4666 21.2437 21.5293 21.0926 21.5294 20.935V17.9096C21.5293 17.752 21.4666 17.6009 21.3551 17.4895C21.2437 17.378 21.0926 17.3153 20.935 17.3152C19.8559 17.3171 18.7834 17.1462 17.7583 16.8088L17.7499 16.806C17.5375 16.7327 17.3023 16.7991 17.1977 16.9056L17.1612 16.9427L14.89 18.658L14.4922 18.4457C12.2249 17.236 10.7476 15.7588 9.55275 13.5064L9.34239 13.1098L11.0158 10.8863L11.0505 10.8515C11.1294 10.7729 11.1851 10.6741 11.2114 10.566C11.2377 10.4578 11.2336 10.3444 11.1995 10.2385C10.863 9.21432 10.6922 8.14303 10.6935 7.06504C10.6934 6.90744 10.6307 6.75634 10.5192 6.6449C10.4078 6.53346 10.2567 6.47078 10.0991 6.4706L7.06504 6.4706Z" fill="#ffffff"/>
</svg>
