<svg width="28" height="28" viewBox="0 0 28 28" fill="none" xmlns="http://www.w3.org/2000/svg">
<path d="M4.12754 27.4273C3.18524 27.4262 2.28184 27.0514 1.61544 26.3851C0.949142 25.7188 0.574342 24.8153 0.573242 23.873V4.1273C0.574342 3.185 0.949142 2.2815 1.61544 1.6152C2.28184 0.948898 3.18524 0.574098 4.12754 0.572998H23.8732C24.8155 0.574098 25.719 0.948898 26.3853 1.6152C27.0516 2.2815 27.4264 3.185 27.4275 4.1273V23.873C27.4264 24.8153 27.0516 25.7188 26.3853 26.3851C25.719 27.0514 24.8155 27.4262 23.8732 27.4273H4.12754ZM4.12754 2.0399C3.57414 2.0405 3.04354 2.2606 2.65214 2.6519C2.26084 3.0433 2.04074 3.5738 2.04014 4.1273V23.873C2.04074 24.4264 2.26084 24.957 2.65214 25.3484C3.04354 25.7397 3.57414 25.9598 4.12754 25.9604H23.8732C24.4267 25.9598 24.9572 25.7397 25.3486 25.3484C25.7399 24.957 25.96 24.4264 25.9606 23.873V4.1273C25.96 3.5738 25.7399 3.0433 25.3486 2.6519C24.9572 2.2606 24.4267 2.0405 23.8732 2.0399H4.12754Z" fill="#878E8C"/>
<path d="M14.0005 20.6573C12.6838 20.6573 11.3967 20.2668 10.302 19.5353C9.20723 18.8038 8.35393 17.7641 7.85013 16.5477C7.34623 15.3313 7.21443 13.9928 7.47133 12.7014C7.72813 11.41 8.36223 10.2238 9.29323 9.29284C10.2242 8.36184 11.4104 7.72784 12.7017 7.47094C13.9931 7.21404 15.3316 7.34594 16.5481 7.84974C17.7645 8.35364 18.8042 9.20694 19.5357 10.3016C20.2672 11.3964 20.6576 12.6835 20.6576 14.0001C20.6556 15.7651 19.9536 17.4572 18.7056 18.7052C17.4576 19.9533 15.7654 20.6553 14.0005 20.6573ZM14.0005 8.80984C12.9739 8.80984 11.9704 9.11424 11.1169 9.68464C10.2634 10.2549 9.59813 11.0655 9.20533 12.0139C8.81243 12.9623 8.70963 14.0059 8.90993 15.0127C9.11023 16.0195 9.60453 16.9444 10.3304 17.6702C11.0563 18.3961 11.9811 18.8904 12.9879 19.0907C13.9947 19.291 15.0383 19.1882 15.9867 18.7954C16.9351 18.4025 17.7457 17.7373 18.3161 16.8837C18.8864 16.0302 19.1908 15.0267 19.1908 14.0001C19.1892 12.6241 18.6419 11.3048 17.6689 10.3318C16.6958 9.35874 15.3766 8.81144 14.0005 8.80984Z" fill="#878E8C"/>
<path d="M21.7853 7.68163C22.5019 7.68163 23.0828 7.10073 23.0828 6.38403C23.0828 5.66743 22.5019 5.08643 21.7853 5.08643C21.0686 5.08643 20.4877 5.66743 20.4877 6.38403C20.4877 7.10073 21.0686 7.68163 21.7853 7.68163Z" fill="#878E8C"/>
</svg>
