<svg width="28" height="28" viewBox="0 0 28 28" fill="none" xmlns="http://www.w3.org/2000/svg">
<path d="M17.1315 27.4273V17.5685H21.5788V14.9147H17.1315V11.0806C17.1319 10.6661 17.2968 10.2688 17.5899 9.9757C17.8829 9.6826 18.2803 9.5178 18.6948 9.5173H21.6014V6.5808H17.8649C15.9021 6.5808 14.4776 8.1242 14.4776 10.2507V14.9147H10.1341V17.5685H14.4776V27.4273H4.12754C3.18524 27.4262 2.28184 27.0514 1.61544 26.3851C0.949142 25.7187 0.574342 24.8153 0.573242 23.873V4.1273C0.574342 3.185 0.949142 2.2815 1.61544 1.6152C2.28184 0.948898 3.18524 0.574098 4.12754 0.572998H23.8732C24.8155 0.574098 25.7189 0.948898 26.3853 1.6152C27.0516 2.2815 27.4264 3.185 27.4274 4.1273V23.873C27.4264 24.8153 27.0516 25.7187 26.3853 26.3851C25.7189 27.0514 24.8155 27.4262 23.8732 27.4273H17.1315ZM18.5983 25.9604H23.8732C24.4266 25.9598 24.9572 25.7397 25.3486 25.3484C25.7399 24.957 25.96 24.4264 25.9606 23.873V4.1273C25.96 3.5739 25.7399 3.0433 25.3486 2.6519C24.9572 2.2606 24.4266 2.0405 23.8732 2.0399H4.12754C3.57414 2.0405 3.04354 2.2606 2.65214 2.6519C2.26084 3.0433 2.04074 3.5739 2.04014 4.1273V23.873C2.04074 24.4264 2.26084 24.957 2.65214 25.3484C3.04354 25.7397 3.57414 25.9598 4.12754 25.9604H13.0108V19.0353H9.57604C9.33514 19.035 9.10414 18.9392 8.93374 18.7689C8.76344 18.5985 8.66764 18.3675 8.66734 18.1266V14.3565C8.66764 14.1156 8.76344 13.8846 8.93384 13.7143C9.10414 13.5439 9.33514 13.4481 9.57604 13.4478H13.0108V10.2507C13.0108 8.8723 13.4867 7.591 14.3507 6.643C15.2493 5.657 16.4973 5.114 17.8649 5.114H22.1771C22.4133 5.1143 22.6398 5.2082 22.8069 5.3753C22.9739 5.5423 23.0679 5.7688 23.0682 6.0051V10.093C23.0679 10.3293 22.9739 10.5558 22.8069 10.7228C22.6398 10.8899 22.4133 10.9839 22.1771 10.9841H18.5983V13.4478H22.1369C22.3778 13.4481 22.6088 13.5439 22.7791 13.7143C22.9495 13.8846 23.0453 14.1156 23.0456 14.3565V18.1266C23.0453 18.3675 22.9495 18.5985 22.7792 18.7688C22.6088 18.9392 22.3778 19.035 22.1369 19.0353H18.5983V25.9604Z" fill="#878E8C"/>
</svg>
