<svg width="16" height="16" viewBox="0 0 16 16" fill="none" xmlns="http://www.w3.org/2000/svg">
<path d="M12.6875 10.375C11.7614 10.375 10.9385 10.8251 10.4257 11.5178L6.011 9.26175C6.08506 9.01013 6.125 8.74403 6.125 8.46875C6.125 8.09591 6.05191 7.73987 5.91956 7.41397L10.5464 4.63403C11.0627 5.23997 11.8309 5.625 12.6875 5.625C14.2383 5.625 15.5 4.36331 15.5 2.8125C15.5 1.26169 14.2383 0 12.6875 0C11.1367 0 9.875 1.26169 9.875 2.8125C9.875 3.17094 9.94253 3.51384 10.0653 3.82938L5.42688 6.61625C4.911 6.02819 4.15441 5.65625 3.3125 5.65625C1.76169 5.65625 0.5 6.91794 0.5 8.46875C0.5 10.0196 1.76169 11.2812 3.3125 11.2812C4.25381 11.2812 5.0885 10.8164 5.59928 10.1042L10.0012 12.3537C9.91919 12.6173 9.875 12.8973 9.875 13.1875C9.875 14.7383 11.1367 16 12.6875 16C14.2383 16 15.5 14.7383 15.5 13.1875C15.5 11.6367 14.2383 10.375 12.6875 10.375ZM12.6875 0.9375C13.7214 0.9375 14.5625 1.77863 14.5625 2.8125C14.5625 3.84637 13.7214 4.6875 12.6875 4.6875C11.6536 4.6875 10.8125 3.84637 10.8125 2.8125C10.8125 1.77863 11.6536 0.9375 12.6875 0.9375ZM3.3125 10.3438C2.27863 10.3438 1.4375 9.50262 1.4375 8.46875C1.4375 7.43488 2.27863 6.59375 3.3125 6.59375C4.34637 6.59375 5.1875 7.43488 5.1875 8.46875C5.1875 9.50262 4.34637 10.3438 3.3125 10.3438ZM12.6875 15.0625C11.6536 15.0625 10.8125 14.2214 10.8125 13.1875C10.8125 12.1536 11.6536 11.3125 12.6875 11.3125C13.7214 11.3125 14.5625 12.1536 14.5625 13.1875C14.5625 14.2214 13.7214 15.0625 12.6875 15.0625Z" fill="white"/>
</svg>
