<svg width="1872" height="64" viewBox="0 0 1872 64" fill="none" xmlns="http://www.w3.org/2000/svg">
<g clip-path="url(#clip0)">
<path d="M-3 61.9482V0H42.8489C49.454 0 54.2673 1.33223 57.2887 3.99667C60.3102 6.59099 61.8209 9.74625 61.8209 13.4624V16.6177C61.8209 19.4925 61.1885 21.8765 59.9237 23.7696C58.7292 25.5927 57.4292 26.8898 56.0239 27.6611C59.1156 28.6427 61.575 30.3606 63.4019 32.8147C65.2288 35.1987 66.1423 38.3539 66.1423 42.2805V44.1736C66.1423 46.2771 65.8964 48.3806 65.4045 50.4841C64.9126 52.5876 63.964 54.5159 62.5587 56.2688C61.2236 57.9516 59.2913 59.3189 56.7617 60.3706C54.3024 61.4224 51.0701 61.9482 47.0649 61.9482H-3ZM10.9128 24.8214H40.6355C43.0949 24.8915 44.9218 24.2955 46.1163 23.0334C47.3109 21.7012 47.9081 20.0534 47.9081 18.0902V17.0384C47.9081 15.4257 47.346 13.8831 46.2217 12.4107C45.0975 10.8681 42.9895 10.0968 39.8977 10.0968H10.9128V24.8214ZM10.9128 51.8514H44.1137C46.7839 51.8514 48.7865 51.1853 50.1215 49.8531C51.5269 48.5209 52.2295 46.6978 52.2295 44.384V42.4908C52.2295 40.3172 51.4215 38.5643 49.8053 37.2321C48.1892 35.8297 45.5191 35.1286 41.7949 35.1286H10.9128V51.8514ZM234.337 63C231.526 63 228.751 62.5793 226.01 61.7379C223.34 60.8264 220.283 58.6528 216.84 55.217L209.252 47.6444C206.16 44.4892 202.752 42.1753 199.028 40.7028C195.374 39.2304 190.772 38.4942 185.22 38.4942H181.953V61.9482H168.04V8.5192L166.986 0H213.678C218.175 0 221.689 0.595994 224.218 1.78798C226.818 2.97997 228.715 4.5576 229.91 6.52087C231.175 8.41403 231.983 10.4474 232.334 12.621C232.686 14.7947 232.861 16.8631 232.861 18.8264V20.8247C232.861 22.3673 232.65 24.0851 232.229 25.9783C231.807 27.8715 230.999 29.7296 229.805 31.5526C228.61 33.3756 226.889 34.9182 224.64 36.1803C222.462 37.4424 219.581 38.1786 215.997 38.389C216.911 38.8798 218.07 39.6511 219.475 40.7028C220.881 41.6845 222.321 42.7713 223.797 43.9633C225.343 45.1553 226.748 46.2421 228.013 47.2237C229.278 48.2053 230.261 48.9065 230.964 49.3272C233.494 50.7997 235.742 51.8164 237.71 52.3773C239.677 52.9382 241.293 53.2538 242.558 53.3239C243.823 53.394 244.561 53.4291 244.771 53.4291L242.663 61.9482C242.031 62.1586 240.977 62.369 239.501 62.5793C238.026 62.8598 236.304 63 234.337 63ZM197.763 28.9232C200.433 28.9232 202.822 28.8881 204.93 28.818C207.038 28.6778 208.935 28.5376 210.622 28.3973C213.714 28.0467 215.857 27.2053 217.051 25.8731C218.316 24.4708 218.948 22.6828 218.948 20.5092V18.0902C218.948 15.8464 218.351 13.9533 217.157 12.4107C215.962 10.8681 213.819 10.0968 210.727 10.0968H181.953V28.3973C185.045 28.6077 187.891 28.7479 190.49 28.818C193.09 28.8881 195.514 28.9232 197.763 28.9232ZM256.378 61.9482V8.5192L255.324 0.10518H270.502L306.338 37.5476L310.449 43.2271H311.608V0.10518H325.521V61.9482H312.135L275.456 23.8748L271.345 18.9316H270.291V61.9482H256.378ZM367.67 61.9482V0.10518H381.582V61.9482H367.67ZM400.553 61.9482V8.5192L399.499 0.10518H414.677L450.513 37.5476L454.623 43.2271H455.783V0.10518H469.696V61.9482H456.31L419.631 23.8748L415.52 18.9316H414.466V61.9482H400.553ZM532.082 61.9482C527.023 61.9482 522.386 61.8431 518.17 61.6327C514.024 61.3523 510.686 60.8965 508.157 60.2654C505.697 59.6344 504.468 58.7579 504.468 57.6361L509.738 49.5376C511.775 50.4491 514.586 51.0801 518.17 51.4307C521.823 51.7112 526.637 51.8514 532.609 51.8514H542.728C546.03 51.8514 548.208 51.0801 549.262 49.5376C550.316 47.9249 550.844 46.207 550.844 44.384V8.5192L550 0.10518H564.756V43.1219C564.756 46.6277 564.299 49.818 563.386 52.6928C562.543 55.5676 560.751 57.8464 558.011 59.5292C555.341 61.1419 551.23 61.9482 545.679 61.9482H532.082ZM572.195 61.9482L603.078 0.10518H623.841L654.618 61.9482H638.387L632.168 48.591H594.435L587.584 61.9482H572.195ZM598.229 38.2838H628.268L613.828 9.57096H612.774L598.229 38.2838ZM665.181 61.9482V8.5192L664.127 0H710.819C715.316 0 718.83 0.595994 721.359 1.78798C723.959 2.97997 725.856 4.5576 727.051 6.52087C728.316 8.41403 729.124 10.4474 729.475 12.621C729.826 14.7947 730.002 16.8631 730.002 18.8264V25.0317C730.002 26.6444 729.756 28.4674 729.264 30.5008C728.773 32.4641 727.859 34.3923 726.524 36.2855C725.189 38.1085 723.257 39.6511 720.727 40.9132C718.197 42.1052 714.895 42.7012 710.819 42.7012H700.069C695.642 42.7012 691.496 42.596 687.631 42.3856C683.837 42.1753 680.991 42 679.094 41.8598V61.9482H665.181ZM679.094 32.6043H707.763C710.925 32.6043 713.103 31.8331 714.298 30.2905C715.492 28.7479 716.089 26.8898 716.089 24.7162V18.0902C716.089 15.8464 715.492 13.9533 714.298 12.4107C713.103 10.8681 710.96 10.0968 707.868 10.0968H679.094V32.6043ZM731.064 61.9482L761.946 0.10518H782.71L813.487 61.9482H797.255L791.037 48.591H753.304L746.453 61.9482H731.064ZM757.098 38.2838H787.137L772.697 9.57096H771.643L757.098 38.2838ZM824.051 61.9482V8.5192L822.997 0.10518H838.175L874.01 37.5476L878.121 43.2271H879.28V0.10518H893.193V61.9482H879.807L843.128 23.8748L839.018 18.9316H837.964V61.9482H824.051ZM911.129 61.9482V0.10518H976.688V10.202H925.042V24.7162H964.462V35.1286H925.042V51.8514H977.11L981.326 60.7913C981.326 61.0718 980.377 61.3523 978.48 61.6327C976.583 61.8431 973.315 61.9482 968.678 61.9482H911.129ZM1018.15 61.9482V8.5192L1017.1 0.10518H1033.12L1056.94 42.1753L1081.6 0.10518H1095.82V61.9482H1081.91V22.7179H1080.76L1076.64 31.8681L1063.36 55.6377H1050.61L1037.33 31.8681L1033.12 22.7179H1032.06V61.9482H1018.15ZM1105.34 61.9482L1136.22 0.10518H1156.99L1187.76 61.9482H1171.53L1165.31 48.591H1127.57L1120.73 61.9482H1105.34ZM1131.37 38.2838H1161.41L1146.97 9.57096H1145.91L1131.37 38.2838ZM1198.32 61.9482V8.5192L1197.27 0.10518H1246.17C1251.87 0.10518 1256.22 0.806348 1259.24 2.20869C1262.34 3.61102 1264.48 5.71453 1265.68 8.5192C1266.87 11.2538 1267.47 14.6895 1267.47 18.8264V43.1219C1267.47 47.3289 1266.87 50.8347 1265.68 53.6394C1264.55 56.374 1262.45 58.4424 1259.35 59.8447C1256.33 61.2471 1251.94 61.9482 1246.17 61.9482H1198.32ZM1212.24 51.8514H1245.33C1250.74 51.8514 1253.48 49.3623 1253.55 44.384V17.5643C1253.55 15.5309 1252.96 13.813 1251.77 12.4107C1250.57 10.9382 1248.42 10.202 1245.33 10.202H1212.24V51.8514ZM1283.25 61.9482V0.10518H1348.8V10.202H1297.16V24.7162H1336.58V35.1286H1297.16V51.8514H1349.23L1353.44 60.7913C1353.44 61.0718 1352.49 61.3523 1350.59 61.6327C1348.69 61.8431 1345.43 61.9482 1340.79 61.9482H1283.25ZM1389.21 61.9482V0.10518H1403.12V61.9482H1389.21ZM1422.09 61.9482V8.5192L1421.04 0.10518H1436.22L1472.05 37.5476L1476.16 43.2271H1477.32V0.10518H1491.23V61.9482H1477.84L1441.16 23.8748L1437.06 18.9316H1436V61.9482H1422.09ZM1545.19 61.9482C1540.41 61.9482 1536.9 61.7379 1534.65 61.3172C1532.4 60.8965 1531.28 60.4057 1531.28 59.8447L1535.49 50.6945C1537.11 50.975 1541.11 51.2554 1547.51 51.5359C1553.97 51.7462 1562.83 51.8514 1574.07 51.8514H1576.07C1579.09 51.8514 1581.24 51.3255 1582.5 50.2738C1583.77 49.1519 1584.4 47.2938 1584.4 44.6995V42.596C1584.4 40.1419 1583.87 38.389 1582.81 37.3372C1581.83 36.2855 1579.58 35.7596 1576.07 35.7596H1551.61C1544.52 35.7596 1539.36 34.4624 1536.12 31.8681C1532.89 29.2037 1531.28 24.8915 1531.28 18.9316V17.2488C1531.28 14.1636 1531.84 11.3239 1532.96 8.72955C1534.16 6.13523 1536.15 4.06678 1538.97 2.52421C1541.78 0.911524 1545.64 0.10518 1550.56 0.10518H1579.23C1584.01 0.10518 1587.87 0.350588 1590.82 0.841404C1593.77 1.33223 1595.25 1.8581 1595.25 2.41904L1593.14 11.2538C1591.31 11.0434 1587.17 10.8331 1580.7 10.6227C1574.24 10.3422 1565.57 10.202 1554.67 10.202L1553.51 10.0968C1550.28 10.0968 1548.1 10.7629 1546.98 12.0952C1545.85 13.3573 1545.26 14.97 1545.19 16.9332V18.7212C1545.19 21.0351 1545.82 22.788 1547.09 23.98C1548.42 25.1018 1550.6 25.6628 1553.62 25.6628H1577.02C1581.52 25.6628 1585.34 26.1185 1588.5 27.0301C1591.67 27.9416 1594.09 29.6244 1595.78 32.0785C1597.47 34.4624 1598.31 38.0033 1598.31 42.7012V44.384C1598.31 49.6427 1596.94 53.8848 1594.19 57.1102C1591.52 60.3356 1586.86 61.9482 1580.18 61.9482H1545.19ZM1615.15 61.9482V8.5192L1614.1 0H1660.8C1665.29 0 1668.81 0.595994 1671.34 1.78798C1673.94 2.97997 1675.83 4.5576 1677.03 6.52087C1678.29 8.41403 1679.1 10.4474 1679.45 12.621C1679.8 14.7947 1679.98 16.8631 1679.98 18.8264V25.0317C1679.98 26.6444 1679.73 28.4674 1679.24 30.5008C1678.75 32.4641 1677.83 34.3923 1676.5 36.2855C1675.16 38.1085 1673.23 39.6511 1670.7 40.9132C1668.18 42.1052 1664.87 42.7012 1660.8 42.7012H1650.05C1645.62 42.7012 1641.47 42.596 1637.61 42.3856C1633.81 42.1753 1630.96 42 1629.07 41.8598V61.9482H1615.15ZM1629.07 32.6043H1657.74C1660.9 32.6043 1663.08 31.8331 1664.27 30.2905C1665.47 28.7479 1666.07 26.8898 1666.07 24.7162V18.0902C1666.07 15.8464 1665.47 13.9533 1664.27 12.4107C1663.08 10.8681 1660.94 10.0968 1657.85 10.0968H1629.07V32.6043ZM1681.03 61.9482L1711.92 0.10518H1732.68L1763.46 61.9482H1747.23L1741.01 48.591H1703.28L1696.42 61.9482H1681.03ZM1707.07 38.2838H1737.11L1722.67 9.57096H1721.62L1707.07 38.2838ZM1772.97 61.9482V0.10518H1786.89V61.9482H1772.97ZM1805.86 61.9482V8.5192L1804.8 0.10518H1819.98L1855.82 37.5476L1859.92 43.2271H1861.09V0.10518H1875V61.9482H1861.61L1824.93 23.8748L1820.82 18.9316H1819.77V61.9482H1805.86Z" fill="#730E15"/>
</g>
<defs>
<clipPath id="clip0">
<rect width="1872" height="64" fill="white"/>
</clipPath>
</defs>
</svg>
