<svg width="1878" height="63" viewBox="0 0 1878 63" fill="none" xmlns="http://www.w3.org/2000/svg">
<path d="M0 61.9482V0H45.8489C52.454 0 57.2673 1.33223 60.2887 3.99667C63.3102 6.59099 64.8209 9.74625 64.8209 13.4624V16.6177C64.8209 19.4925 64.1885 21.8765 62.9237 23.7696C61.7292 25.5927 60.4292 26.8898 59.0239 27.6611C62.1156 28.6427 64.575 30.3606 66.4019 32.8147C68.2288 35.1987 69.1423 38.3539 69.1423 42.2805V44.1736C69.1423 46.2771 68.8964 48.3806 68.4045 50.4841C67.9126 52.5876 66.964 54.5159 65.5587 56.2688C64.2236 57.9516 62.2913 59.3189 59.7617 60.3706C57.3024 61.4224 54.0701 61.9482 50.0649 61.9482H0ZM13.9128 24.8214H43.6355C46.0949 24.8915 47.9218 24.2955 49.1163 23.0334C50.3109 21.7012 50.9081 20.0534 50.9081 18.0902V17.0384C50.9081 15.4257 50.346 13.8831 49.2217 12.4107C48.0975 10.8681 45.9895 10.0968 42.8977 10.0968H13.9128V24.8214ZM13.9128 51.8514H47.1137C49.7839 51.8514 51.7865 51.1853 53.1215 49.8531C54.5269 48.5209 55.2295 46.6978 55.2295 44.384V42.4908C55.2295 40.3172 54.4215 38.5643 52.8053 37.2321C51.1892 35.8297 48.5191 35.1286 44.7949 35.1286H13.9128V51.8514ZM237.337 63C234.526 63 231.751 62.5793 229.01 61.7379C226.34 60.8264 223.283 58.6528 219.84 55.217L212.252 47.6444C209.16 44.4892 205.752 42.1753 202.028 40.7028C198.374 39.2304 193.772 38.4942 188.22 38.4942H184.953V61.9482H171.04V8.5192L169.986 0H216.678C221.175 0 224.689 0.595994 227.218 1.78798C229.818 2.97997 231.715 4.5576 232.91 6.52087C234.175 8.41403 234.983 10.4474 235.334 12.621C235.686 14.7947 235.861 16.8631 235.861 18.8264V20.8247C235.861 22.3673 235.65 24.0851 235.229 25.9783C234.807 27.8715 233.999 29.7296 232.805 31.5526C231.61 33.3756 229.889 34.9182 227.64 36.1803C225.462 37.4424 222.581 38.1786 218.997 38.389C219.911 38.8798 221.07 39.6511 222.475 40.7028C223.881 41.6845 225.321 42.7713 226.797 43.9633C228.343 45.1553 229.748 46.2421 231.013 47.2237C232.278 48.2053 233.261 48.9065 233.964 49.3272C236.494 50.7997 238.742 51.8164 240.71 52.3773C242.677 52.9382 244.293 53.2538 245.558 53.3239C246.823 53.394 247.561 53.4291 247.771 53.4291L245.663 61.9482C245.031 62.1586 243.977 62.369 242.501 62.5793C241.026 62.8598 239.304 63 237.337 63ZM200.763 28.9232C203.433 28.9232 205.822 28.8881 207.93 28.818C210.038 28.6778 211.935 28.5376 213.622 28.3973C216.714 28.0467 218.857 27.2053 220.051 25.8731C221.316 24.4708 221.948 22.6828 221.948 20.5092V18.0902C221.948 15.8464 221.351 13.9533 220.157 12.4107C218.962 10.8681 216.819 10.0968 213.727 10.0968H184.953V28.3973C188.045 28.6077 190.891 28.7479 193.49 28.818C196.09 28.8881 198.514 28.9232 200.763 28.9232ZM259.378 61.9482V8.5192L258.324 0.10518H273.502L309.338 37.5476L313.449 43.2271H314.608V0.10518H328.521V61.9482H315.135L278.456 23.8748L274.345 18.9316H273.291V61.9482H259.378ZM370.67 61.9482V0.10518H384.582V61.9482H370.67ZM403.553 61.9482V8.5192L402.499 0.10518H417.677L453.513 37.5476L457.623 43.2271H458.783V0.10518H472.696V61.9482H459.31L422.631 23.8748L418.52 18.9316H417.466V61.9482H403.553ZM535.082 61.9482C530.023 61.9482 525.386 61.8431 521.17 61.6327C517.024 61.3523 513.686 60.8965 511.157 60.2654C508.697 59.6344 507.468 58.7579 507.468 57.6361L512.738 49.5376C514.775 50.4491 517.586 51.0801 521.17 51.4307C524.823 51.7112 529.637 51.8514 535.609 51.8514H545.728C549.03 51.8514 551.208 51.0801 552.262 49.5376C553.316 47.9249 553.844 46.207 553.844 44.384V8.5192L553 0.10518H567.756V43.1219C567.756 46.6277 567.299 49.818 566.386 52.6928C565.543 55.5676 563.751 57.8464 561.011 59.5292C558.341 61.1419 554.23 61.9482 548.679 61.9482H535.082ZM575.195 61.9482L606.078 0.10518H626.841L657.618 61.9482H641.387L635.168 48.591H597.435L590.584 61.9482H575.195ZM601.229 38.2838H631.268L616.828 9.57096H615.774L601.229 38.2838ZM668.181 61.9482V8.5192L667.127 0H713.819C718.316 0 721.83 0.595994 724.359 1.78798C726.959 2.97997 728.856 4.5576 730.051 6.52087C731.316 8.41403 732.124 10.4474 732.475 12.621C732.826 14.7947 733.002 16.8631 733.002 18.8264V25.0317C733.002 26.6444 732.756 28.4674 732.264 30.5008C731.773 32.4641 730.859 34.3923 729.524 36.2855C728.189 38.1085 726.257 39.6511 723.727 40.9132C721.197 42.1052 717.895 42.7012 713.819 42.7012H703.069C698.642 42.7012 694.496 42.596 690.631 42.3856C686.837 42.1753 683.991 42 682.094 41.8598V61.9482H668.181ZM682.094 32.6043H710.763C713.925 32.6043 716.103 31.8331 717.298 30.2905C718.492 28.7479 719.089 26.8898 719.089 24.7162V18.0902C719.089 15.8464 718.492 13.9533 717.298 12.4107C716.103 10.8681 713.96 10.0968 710.868 10.0968H682.094V32.6043ZM734.064 61.9482L764.946 0.10518H785.71L816.487 61.9482H800.255L794.037 48.591H756.304L749.453 61.9482H734.064ZM760.098 38.2838H790.137L775.697 9.57096H774.643L760.098 38.2838ZM827.051 61.9482V8.5192L825.997 0.10518H841.175L877.01 37.5476L881.121 43.2271H882.28V0.10518H896.193V61.9482H882.807L846.128 23.8748L842.018 18.9316H840.964V61.9482H827.051ZM914.129 61.9482V0.10518H979.688V10.202H928.042V24.7162H967.462V35.1286H928.042V51.8514H980.11L984.326 60.7913C984.326 61.0718 983.377 61.3523 981.48 61.6327C979.583 61.8431 976.315 61.9482 971.678 61.9482H914.129ZM1021.15 61.9482V8.5192L1020.1 0.10518H1036.12L1059.94 42.1753L1084.6 0.10518H1098.82V61.9482H1084.91V22.7179H1083.76L1079.64 31.8681L1066.36 55.6377H1053.61L1040.33 31.8681L1036.12 22.7179H1035.06V61.9482H1021.15ZM1108.34 61.9482L1139.22 0.10518H1159.99L1190.76 61.9482H1174.53L1168.31 48.591H1130.57L1123.73 61.9482H1108.34ZM1134.37 38.2838H1164.41L1149.97 9.57096H1148.91L1134.37 38.2838ZM1201.32 61.9482V8.5192L1200.27 0.10518H1249.17C1254.87 0.10518 1259.22 0.806348 1262.24 2.20869C1265.34 3.61102 1267.48 5.71453 1268.68 8.5192C1269.87 11.2538 1270.47 14.6895 1270.47 18.8264V43.1219C1270.47 47.3289 1269.87 50.8347 1268.68 53.6394C1267.55 56.374 1265.45 58.4424 1262.35 59.8447C1259.33 61.2471 1254.94 61.9482 1249.17 61.9482H1201.32ZM1215.24 51.8514H1248.33C1253.74 51.8514 1256.48 49.3623 1256.55 44.384V17.5643C1256.55 15.5309 1255.96 13.813 1254.77 12.4107C1253.57 10.9382 1251.42 10.202 1248.33 10.202H1215.24V51.8514ZM1286.25 61.9482V0.10518H1351.8V10.202H1300.16V24.7162H1339.58V35.1286H1300.16V51.8514H1352.23L1356.44 60.7913C1356.44 61.0718 1355.49 61.3523 1353.59 61.6327C1351.69 61.8431 1348.43 61.9482 1343.79 61.9482H1286.25ZM1392.21 61.9482V0.10518H1406.12V61.9482H1392.21ZM1425.09 61.9482V8.5192L1424.04 0.10518H1439.22L1475.05 37.5476L1479.16 43.2271H1480.32V0.10518H1494.23V61.9482H1480.84L1444.16 23.8748L1440.06 18.9316H1439V61.9482H1425.09ZM1548.19 61.9482C1543.41 61.9482 1539.9 61.7379 1537.65 61.3172C1535.4 60.8965 1534.28 60.4057 1534.28 59.8447L1538.49 50.6945C1540.11 50.975 1544.11 51.2554 1550.51 51.5359C1556.97 51.7462 1565.83 51.8514 1577.07 51.8514H1579.07C1582.09 51.8514 1584.24 51.3255 1585.5 50.2738C1586.77 49.1519 1587.4 47.2938 1587.4 44.6995V42.596C1587.4 40.1419 1586.87 38.389 1585.81 37.3372C1584.83 36.2855 1582.58 35.7596 1579.07 35.7596H1554.61C1547.52 35.7596 1542.36 34.4624 1539.12 31.8681C1535.89 29.2037 1534.28 24.8915 1534.28 18.9316V17.2488C1534.28 14.1636 1534.84 11.3239 1535.96 8.72955C1537.16 6.13523 1539.15 4.06678 1541.97 2.52421C1544.78 0.911524 1548.64 0.10518 1553.56 0.10518H1582.23C1587.01 0.10518 1590.87 0.350588 1593.82 0.841404C1596.77 1.33223 1598.25 1.8581 1598.25 2.41904L1596.14 11.2538C1594.31 11.0434 1590.17 10.8331 1583.7 10.6227C1577.24 10.3422 1568.57 10.202 1557.67 10.202L1556.51 10.0968C1553.28 10.0968 1551.1 10.7629 1549.98 12.0952C1548.85 13.3573 1548.26 14.97 1548.19 16.9332V18.7212C1548.19 21.0351 1548.82 22.788 1550.09 23.98C1551.42 25.1018 1553.6 25.6628 1556.62 25.6628H1580.02C1584.52 25.6628 1588.34 26.1185 1591.5 27.0301C1594.67 27.9416 1597.09 29.6244 1598.78 32.0785C1600.47 34.4624 1601.31 38.0033 1601.31 42.7012V44.384C1601.31 49.6427 1599.94 53.8848 1597.19 57.1102C1594.52 60.3356 1589.86 61.9482 1583.18 61.9482H1548.19ZM1618.15 61.9482V8.5192L1617.1 0H1663.8C1668.29 0 1671.81 0.595994 1674.34 1.78798C1676.94 2.97997 1678.83 4.5576 1680.03 6.52087C1681.29 8.41403 1682.1 10.4474 1682.45 12.621C1682.8 14.7947 1682.98 16.8631 1682.98 18.8264V25.0317C1682.98 26.6444 1682.73 28.4674 1682.24 30.5008C1681.75 32.4641 1680.83 34.3923 1679.5 36.2855C1678.16 38.1085 1676.23 39.6511 1673.7 40.9132C1671.18 42.1052 1667.87 42.7012 1663.8 42.7012H1653.05C1648.62 42.7012 1644.47 42.596 1640.61 42.3856C1636.81 42.1753 1633.96 42 1632.07 41.8598V61.9482H1618.15ZM1632.07 32.6043H1660.74C1663.9 32.6043 1666.08 31.8331 1667.27 30.2905C1668.47 28.7479 1669.07 26.8898 1669.07 24.7162V18.0902C1669.07 15.8464 1668.47 13.9533 1667.27 12.4107C1666.08 10.8681 1663.94 10.0968 1660.85 10.0968H1632.07V32.6043ZM1684.03 61.9482L1714.92 0.10518H1735.68L1766.46 61.9482H1750.23L1744.01 48.591H1706.28L1699.42 61.9482H1684.03ZM1710.07 38.2838H1740.11L1725.67 9.57096H1724.62L1710.07 38.2838ZM1775.97 61.9482V0.10518H1789.89V61.9482H1775.97ZM1808.86 61.9482V8.5192L1807.8 0.10518H1822.98L1858.82 37.5476L1862.92 43.2271H1864.09V0.10518H1878V61.9482H1864.61L1827.93 23.8748L1823.82 18.9316H1822.77V61.9482H1808.86Z" fill="#2D2D2D"/>
</svg>
