<svg width="80" height="80" viewBox="0 0 80 80" fill="none" xmlns="http://www.w3.org/2000/svg">
<path d="M78.2884 39.9992C78.2884 61.0643 61.2112 78.1416 40.1462 78.1416C19.0811 78.1416 2.00391 61.0657 2.00391 39.9992C2.00391 18.9328 19.0811 1.85693 40.1462 1.85693C61.2112 1.85693 78.2884 18.9342 78.2884 39.9992Z" fill="#CA1824"/>
<path d="M39.9635 59.1286C38.568 59.1286 37.4566 58.8435 36.5011 58.2445C34.9657 57.2833 34.0342 55.7955 33.734 53.8202C33.6412 53.2097 33.6229 52.5808 33.6057 51.9726C33.5989 51.7093 33.5908 51.4357 33.5771 51.1689C33.5725 51.0838 33.5736 50.9999 33.5748 50.9045C33.5186 50.9413 33.4625 50.9769 33.4075 51.0125C33.1738 51.1632 32.9538 51.3057 32.7281 51.4414C31.3211 52.2899 30.1581 52.7015 28.9574 52.7763C27.0749 52.8947 25.4365 52.1772 24.0879 50.6481C22.2089 48.5153 21.7838 46.1641 22.8253 43.6611C23.5185 41.9951 24.9793 41.058 26.0174 40.4981C26.3027 40.344 26.5868 40.2061 26.8882 40.0589C26.9592 40.0244 27.0302 39.9899 27.1024 39.9543C27.0039 39.9002 26.9053 39.8473 26.808 39.7945C26.447 39.599 26.1056 39.415 25.7676 39.2069C24.2254 38.2595 23.2653 37.2397 22.7474 35.998C22.0542 34.3378 22.1436 32.574 23.0109 30.7574C23.4612 29.8135 24.1418 28.9811 25.0332 28.282C25.8971 27.606 26.769 27.2036 27.6272 27.0851C28.3891 27.0116 28.734 27.0265 29.2897 27.0759C30.401 27.1737 31.4918 27.5703 32.531 28.2544C32.6639 28.3418 32.7911 28.4372 32.9137 28.5304C33.0031 28.5971 33.0924 28.6649 33.1829 28.7293C33.2207 28.7557 33.2609 28.7822 33.2998 28.8086C33.3571 28.8466 33.4155 28.8856 33.4751 28.9293C33.474 28.8109 33.4717 28.6925 33.4694 28.5752C33.4614 28.1372 33.4533 27.6842 33.4866 27.2427C33.5416 26.5103 33.6011 25.8526 33.7787 25.2157C34.512 22.585 36.8711 20.7972 39.6496 20.7673C41.3728 20.75 42.6068 21.0616 43.654 21.7802C45.0793 22.7598 45.9409 24.2016 46.2159 26.0665C46.319 26.7644 46.3523 27.4853 46.3832 28.1832C46.3947 28.4361 46.4061 28.6959 46.4222 28.9546C46.4852 28.9144 46.5482 28.8742 46.6124 28.8328C46.877 28.6637 47.1497 28.489 47.4304 28.3269C48.8626 27.5025 50.0439 27.1254 51.263 27.1047C53.0435 27.0771 54.5914 27.7934 55.8598 29.2398C57.7273 31.3714 58.1593 33.718 57.1441 36.2141C56.6308 37.4743 55.634 38.4768 54.0048 39.3691C53.7069 39.5323 53.4044 39.6795 53.0847 39.8358C53.0034 39.8761 52.9209 39.9152 52.8384 39.9566C52.8888 39.983 52.9392 40.0083 52.9896 40.0348C53.2394 40.1624 53.4743 40.2831 53.708 40.4153C54.9855 41.1385 56.3879 42.0986 57.1132 43.7404C58.0997 45.9778 57.7995 48.183 56.2241 50.294C54.9008 52.0657 53.181 52.9315 51.1186 52.8659C49.6383 52.8188 48.2359 52.2899 46.7063 51.2C46.6387 51.1528 46.5344 51.0838 46.4416 51.0252C46.5104 52.037 46.5425 53.1028 46.3087 54.1514C45.9788 55.638 45.3165 56.7739 44.2853 57.6259C43.1785 58.5399 41.9193 59.0401 40.541 59.1114C40.3451 59.1229 40.1514 59.1286 39.9635 59.1286ZM33.8051 50.4848V50.6941C33.8051 50.7608 33.8039 50.8205 33.8039 50.8769C33.8028 50.9815 33.8016 51.0712 33.8062 51.1586C33.82 51.4276 33.828 51.7024 33.836 51.9668C33.8532 52.5682 33.8704 53.189 33.9621 53.7857C34.2519 55.6909 35.1479 57.1258 36.6236 58.049C37.6674 58.7021 38.9094 58.9677 40.5341 58.8826C41.862 58.8136 43.0765 58.3307 44.1444 57.4488C45.1343 56.6302 45.7702 55.5357 46.0899 54.1019C46.3339 53.0051 46.2789 51.8772 46.2022 50.8159L46.1861 50.5917L46.3763 50.709C46.3889 50.7171 46.696 50.9068 46.8438 51.0114C48.3344 52.0738 49.6967 52.5889 51.1301 52.6348C53.1191 52.6969 54.769 51.8634 56.0442 50.1548C57.5669 48.1152 57.8579 45.987 56.9081 43.8324C56.2115 42.2515 54.8446 41.3179 53.6003 40.6142C53.3712 40.4843 53.1374 40.3647 52.89 40.2383C52.7742 40.1785 52.6562 40.1187 52.5359 40.0555L52.3365 39.9508L52.5382 39.8508C52.6917 39.7738 52.8418 39.7013 52.9896 39.6289C53.307 39.4748 53.6061 39.3288 53.8994 39.1678C55.4794 38.3021 56.4441 37.3363 56.9356 36.1279C57.9164 33.7192 57.497 31.4542 55.6913 29.3927C54.4699 27.9992 52.9862 27.3047 51.271 27.3358C50.0943 27.3553 48.9463 27.7233 47.5496 28.5269C47.2735 28.6856 47.0019 28.8592 46.7407 29.0271C46.6204 29.1041 46.5024 29.1788 46.3855 29.2524L46.2228 29.3536L46.2102 29.1616C46.1884 28.8374 46.1735 28.5097 46.1598 28.1924C46.1266 27.4692 46.0956 26.7862 45.9948 26.0987C45.7301 24.2993 44.9006 22.9104 43.5303 21.9688C42.5243 21.2778 41.3304 20.9788 39.6576 20.9961C36.9811 21.0248 34.7102 22.7448 34.0044 25.2766C33.8326 25.894 33.7742 26.539 33.7203 27.2588C33.6882 27.6899 33.6951 28.1176 33.7031 28.5695C33.7066 28.7684 33.71 28.9684 33.71 29.1708V29.4318L33.5175 29.2559C33.4006 29.1489 33.2872 29.0731 33.1772 28.9995C33.136 28.9719 33.0959 28.9443 33.0558 28.9167C32.9618 28.8512 32.8701 28.7822 32.7796 28.7132C32.6593 28.6224 32.5356 28.5292 32.4084 28.4453C31.4001 27.7819 30.3449 27.3979 29.2713 27.3036C28.7168 27.2553 28.3971 27.2404 27.6558 27.3128C26.8435 27.4243 26.0082 27.8106 25.1764 28.4625C24.3136 29.1386 23.6548 29.9446 23.2194 30.8563C22.3693 32.6361 22.2857 34.2895 22.9605 35.9095C23.4658 37.1213 24.3698 38.0779 25.8891 39.0115C26.2213 39.2161 26.5605 39.3989 26.9179 39.5933C27.0806 39.6806 27.2433 39.7692 27.4072 39.86L27.5985 39.9658L27.4026 40.0635C27.264 40.1325 27.1265 40.1992 26.989 40.2659C26.6899 40.4119 26.4069 40.5487 26.1262 40.7005C24.5245 41.5639 23.5437 42.532 23.0373 43.7496C22.0324 46.1652 22.4438 48.4348 24.2598 50.4963C25.5591 51.9703 27.1356 52.6613 28.9436 52.5475C30.1066 52.475 31.2374 52.0726 32.6112 51.2448C32.8335 51.1114 33.0523 50.9689 33.2849 50.8194C33.3961 50.747 33.5118 50.6734 33.6309 50.5975L33.8051 50.4848ZM39.9922 57.089C39.8707 57.089 39.747 57.0855 39.6209 57.0798C37.09 56.951 35.5249 55.1344 35.5352 52.3382V52.3371C35.5799 49.9743 36.3452 47.8611 37.0877 46.1066C37.1965 45.849 37.3157 45.5926 37.4303 45.3443C37.4921 45.2109 37.554 45.0776 37.6147 44.943C37.6205 44.9304 37.6686 44.8166 37.5907 44.751C37.3512 44.5487 37.2183 44.4728 37.0132 44.3774C36.9158 44.3371 36.7978 44.4498 36.7715 44.482L36.4564 44.8717C35.5741 45.9663 34.6621 47.0977 33.7008 48.1416C32.7269 49.1994 31.5972 49.9663 30.3438 50.4227C28.176 51.2115 26.2534 50.5228 25.0687 48.5325C24.1017 46.9068 24.1189 45.1454 25.1168 43.8209C25.9612 42.6999 27.162 42.1296 28.113 41.7582C29.9737 41.0316 31.902 40.7465 33.71 40.5464C33.7615 40.5349 33.844 40.5291 33.9391 40.5222C34.1878 40.505 34.5624 40.4797 34.6025 40.2877C34.6151 39.998 34.614 39.9715 34.6014 39.7818L34.5922 39.6335C34.5853 39.5093 34.449 39.476 34.3688 39.4668C34.1133 39.438 33.8704 39.4127 33.6344 39.3886C33.0581 39.3288 32.5138 39.2725 31.8905 39.1828C31.3577 39.1069 30.7837 38.977 30.1845 38.7965C30.0092 38.7436 29.8339 38.693 29.6574 38.6413C28.8932 38.4182 28.1027 38.1871 27.3728 37.8479C26.7255 37.5467 26.0678 37.0788 25.472 36.497C24.324 35.376 24.0375 33.9077 24.6413 32.251C25.2417 30.6068 26.3771 29.5594 27.9274 29.2225C29.3882 28.9052 30.6795 29.5364 31.525 30.0388C33.4476 31.1828 34.8615 32.8603 36.1046 34.5033C36.2077 34.639 36.3051 34.7781 36.4037 34.9161C36.5343 35.1 36.6695 35.2909 36.8116 35.4691C36.8436 35.5093 36.8872 35.5289 36.9502 35.53C36.9788 35.5266 37.0705 35.4737 37.1106 35.4507C37.1278 35.4404 37.1438 35.4323 37.1564 35.4243C37.4417 35.269 37.6136 35.1759 37.6434 35.0908C37.672 35.0081 37.5918 34.839 37.46 34.5585L37.4291 34.4918C36.4071 32.3199 35.8285 30.4769 35.6085 28.6902C35.4458 27.368 35.5569 26.2297 35.9488 25.2076C36.0244 25.0098 36.147 24.8328 36.265 24.6615C36.3017 24.6086 36.3384 24.5557 36.3727 24.5028C37.1965 23.2496 38.419 22.731 40.337 22.8196C41.5458 22.8759 42.561 23.3278 43.2725 24.1291C44.1077 25.0696 44.5087 26.4562 44.401 28.0348C44.2246 30.6252 43.2725 32.9535 42.3639 34.8896C42.278 35.0736 42.2825 35.1368 42.5335 35.284C42.7832 35.4312 42.954 35.5266 43.041 35.5128C43.1166 35.5001 43.2037 35.3806 43.3469 35.1805C43.379 35.1357 43.4134 35.0874 43.4524 35.0345C44.6313 33.4249 45.965 31.7612 47.7214 30.4941C48.7721 29.7365 49.7426 29.3191 50.7737 29.1834C52.2208 28.9926 53.4479 29.5077 54.4218 30.716C55.6363 32.2234 55.917 33.7847 55.2559 35.3576C55.0612 35.8221 54.6968 36.2946 54.1732 36.7603C53.6874 37.1926 53.0985 37.5892 52.4683 37.9054C51.9928 38.1446 51.4704 38.2998 50.9662 38.4493C50.8585 38.4814 50.7508 38.5136 50.6431 38.5458C48.9795 39.054 47.4705 39.246 45.6705 39.4438C45.3898 39.4863 45.3532 39.6116 45.3497 39.6634C45.3406 39.8094 45.3394 39.9796 45.3394 40.1037C45.3394 40.1762 45.3383 40.2337 45.3371 40.267C45.3451 40.4096 45.5869 40.4636 45.7897 40.482C47.9655 40.6786 50.2799 40.9971 52.4637 41.9974C53.409 42.4297 54.5708 43.0885 55.1654 44.3498C55.9239 45.9571 55.7268 47.5173 54.5811 48.989C53.7126 50.1031 52.7456 50.6711 51.6227 50.7251C51.2022 50.7458 50.5744 50.7274 49.9717 50.5228C49.3014 50.2951 48.6392 49.9755 48.0022 49.5731C47.3915 49.1867 46.8472 48.7004 46.3213 48.2313C45.1332 47.1701 44.22 45.9502 43.1499 44.4659C43.096 44.3935 43.0422 44.3785 42.9574 44.4141C42.5816 44.582 42.365 44.682 42.3249 44.789C42.286 44.8947 42.3834 45.1051 42.5461 45.4547L42.5621 45.4903C43.253 47.0091 44.0802 49.0373 44.3472 51.2574C44.5087 52.6026 44.4136 53.6121 44.0401 54.5285C43.3435 56.229 41.9835 57.089 39.9922 57.089ZM35.7643 52.3394C35.7552 54.9999 37.2366 56.7279 39.6324 56.8498C41.7486 56.959 43.1201 56.1692 43.8259 54.4411C44.1845 53.5627 44.2739 52.5889 44.118 51.285C43.8557 49.0959 43.0364 47.0896 42.3524 45.5857L42.3364 45.5512C42.1359 45.1201 42.0351 44.9039 42.1084 44.7085C42.184 44.5061 42.4258 44.398 42.8657 44.2026C43.0502 44.1256 43.2152 44.1715 43.3332 44.3291C44.3965 45.803 45.3016 47.0126 46.4726 48.0588C46.9916 48.5222 47.529 49.0016 48.1236 49.3788C48.7458 49.772 49.392 50.0836 50.0439 50.3043C50.4942 50.4572 51.035 50.5228 51.6101 50.4952C52.6619 50.4446 53.574 49.9053 54.3989 48.8464C55.4874 47.4495 55.6753 45.9698 54.9569 44.4475C54.3943 43.2529 53.2772 42.6217 52.3675 42.2055C50.2146 41.2201 47.9242 40.904 45.7679 40.7097C45.3429 40.6717 45.1206 40.5222 45.108 40.2659C45.1091 40.2233 45.1103 40.1693 45.1103 40.1014C45.1114 39.975 45.1126 39.8002 45.1217 39.6496C45.1263 39.5657 45.1767 39.2851 45.6419 39.215C47.4339 39.0172 48.9325 38.8264 50.5767 38.3251C50.6844 38.2917 50.7921 38.2595 50.9009 38.2274C51.3959 38.0802 51.908 37.9284 52.3652 37.6985C52.9782 37.3903 53.5499 37.0063 54.0208 36.5867C54.5112 36.1498 54.8652 35.6933 55.0451 35.2668C55.6707 33.779 55.4015 32.2958 54.2431 30.8598C53.323 29.7181 52.1658 29.2294 50.8035 29.4099C49.8102 29.541 48.8729 29.9446 47.8544 30.6793C46.1231 31.9279 44.8043 33.5755 43.6357 35.169C43.5979 35.2208 43.5635 35.269 43.5314 35.3127C43.151 35.8428 43.0571 35.8566 42.4166 35.4795C42.1336 35.3127 41.9915 35.1391 42.1554 34.7885C43.0548 32.8718 43.9977 30.5689 44.1707 28.0164C44.2739 26.4999 43.8935 25.1731 43.0995 24.2786C42.42 23.514 41.4862 23.099 40.3244 23.0461C38.4958 22.9621 37.3363 23.4485 36.5618 24.627C36.5251 24.6822 36.4884 24.7362 36.4506 24.7902C36.3349 24.957 36.2261 25.1145 36.1596 25.2869C35.7815 26.2723 35.675 27.3749 35.8331 28.658C36.0496 30.4194 36.6225 32.2406 37.6331 34.3906L37.664 34.4573C38.0008 35.1702 37.9779 35.2357 37.2618 35.6232C37.2504 35.6289 37.2366 35.6381 37.2206 35.6462C37.1106 35.7094 37.0224 35.7577 36.9433 35.7565C36.8138 35.7542 36.705 35.7037 36.6305 35.6094C36.485 35.4266 36.3475 35.2334 36.2146 35.046C36.1172 34.9092 36.0198 34.7724 35.919 34.639C34.6908 33.0144 33.2941 31.3565 31.4059 30.2332C30.0986 29.4559 29.0399 29.2122 27.9743 29.4433C26.4837 29.7675 25.4342 30.7367 24.8544 32.3257C24.2838 33.8905 24.552 35.2748 25.629 36.328C26.2064 36.8925 26.8423 37.3443 27.4668 37.6352C28.1806 37.9675 28.9631 38.1963 29.7193 38.4171C29.8958 38.4688 30.0722 38.5205 30.2475 38.5723C30.8353 38.7493 31.399 38.877 31.9203 38.9505C32.539 39.0391 33.081 39.0954 33.655 39.1552C33.8922 39.1793 34.1351 39.2046 34.3917 39.2334C34.6461 39.261 34.8065 39.4047 34.8179 39.6151L34.8271 39.7623C34.8397 39.9612 34.842 39.9911 34.8271 40.3003L34.826 40.3141C34.7629 40.6901 34.2748 40.7246 33.9517 40.7465C33.8681 40.7522 33.789 40.7579 33.7432 40.7671C31.9398 40.9672 30.0298 41.25 28.1932 41.9663C27.2697 42.3262 26.1067 42.8781 25.2967 43.9542C24.3572 45.2029 24.3446 46.8677 25.2623 48.4095C26.4012 50.3238 28.1771 50.9597 30.2624 50.2008C31.4815 49.757 32.5803 49.0097 33.529 47.9795C34.4857 46.9413 35.3954 45.8122 36.2753 44.7211L36.5904 44.3302C36.6706 44.2313 36.8803 44.0681 37.1014 44.1601C37.3306 44.2658 37.4749 44.3498 37.735 44.5682C37.8828 44.6924 37.884 44.8901 37.821 45.0316C37.7602 45.1661 37.6972 45.3006 37.6354 45.4351C37.5208 45.6812 37.4028 45.9364 37.2962 46.1905C36.5641 47.9301 35.8079 50.0157 35.7643 52.3394Z" fill="white"/>
<path d="M26.7539 39.9867C26.1947 39.6768 25.6404 39.3966 25.1133 39.0732C23.7419 38.2338 22.5457 37.2079 21.9087 35.6846C21.1223 33.8082 21.3272 31.959 22.1901 30.1592C22.6901 29.1148 23.4283 28.2532 24.3344 27.5458C25.1405 26.9162 26.0639 26.4237 27.07 26.2867C27.8933 26.2077 28.255 26.2262 28.834 26.2768C30.0808 26.3866 31.2227 26.836 32.2695 27.5224C32.5115 27.6804 32.7337 27.8655 32.9694 28.0309C33.1287 28.1421 33.299 28.2396 33.4805 28.4038C33.4805 27.7013 33.441 27.0175 33.4916 26.341C33.5459 25.6188 33.6089 24.8818 33.8027 24.1881C34.5792 21.4093 37.1222 19.5329 40.0108 19.5021C41.5267 19.486 42.9772 19.6934 44.2536 20.5686C45.8424 21.6562 46.6868 23.2264 46.962 25.0868C47.1213 26.1669 47.1225 27.2693 47.1966 28.384C47.6003 28.1322 48.0187 27.852 48.4545 27.6026C49.7161 26.8792 51.0382 26.3323 52.5233 26.3076C54.5046 26.2743 56.1106 27.1137 57.3809 28.5581C59.2832 30.7208 59.8535 33.1984 58.7425 35.9179C58.1104 37.4647 56.8488 38.4609 55.4156 39.2436C54.9478 39.4991 54.4614 39.7225 53.9441 39.9793C54.3466 40.1891 54.7268 40.3743 55.0947 40.5817C56.6081 41.4347 57.9895 42.4655 58.7104 44.095C59.8029 46.5639 59.3523 48.8909 57.766 51.008C56.4279 52.7955 54.649 53.7917 52.369 53.7201C50.6136 53.6645 49.0902 52.9535 47.683 51.9548C47.5262 51.8437 47.1867 51.6351 47.1867 51.6351C47.2744 52.83 47.325 54.0262 47.0633 55.1989C46.7423 56.6371 46.0893 57.9024 44.9252 58.8604C43.7722 59.8097 42.4575 60.3503 40.9626 60.4281C39.4553 60.5059 37.9888 60.3318 36.6778 59.5146C34.9532 58.4394 34.0521 56.8099 33.7533 54.8508C33.6114 53.92 33.6348 52.9633 33.5854 52.0177C33.578 51.8708 33.5842 51.7227 33.5842 51.5129C33.1855 51.7659 32.8398 51.9968 32.4831 52.2103C31.2437 52.9547 29.9425 53.5349 28.476 53.6262C26.3824 53.7559 24.68 52.909 23.3295 51.382C21.4112 49.2131 20.8544 46.7306 21.9914 44.0086C22.6419 42.4507 23.9221 41.4545 25.375 40.6743C25.8207 40.4336 26.2799 40.2212 26.7539 39.9867ZM35.6951 53.2757C35.6852 55.9742 37.1333 58.0987 39.9799 58.2431C42.0637 58.3481 43.7623 57.6703 44.6178 55.5804C45.0721 54.4694 45.082 53.3016 44.94 52.1301C44.6783 49.9624 43.9265 47.9453 43.0278 45.9751C42.6081 45.0764 42.5884 45.0665 43.5179 44.6542C43.6685 44.5912 43.7858 44.6357 43.8722 44.7517C44.9042 46.1787 45.9485 47.5971 47.2719 48.7748C47.8434 49.2834 48.4236 49.7982 49.0668 50.2031C49.7198 50.6142 50.4321 50.9635 51.1629 51.2104C51.7048 51.3931 52.3208 51.4499 52.8961 51.4215C54.2244 51.3573 55.2045 50.6117 55.9921 49.6044C57.155 48.1168 57.4241 46.4787 56.6081 44.7529C56.0304 43.5333 54.9453 42.8284 53.7577 42.2865C51.4888 41.2508 49.0606 40.8903 46.6078 40.6706C46.1658 40.6311 46.0164 40.4854 46.0078 40.3114C46.0127 40.2151 46.0066 39.9089 46.0214 39.6633C46.0251 39.5855 46.072 39.3719 46.4769 39.3114C48.3471 39.1065 50.0037 38.9016 51.811 38.3523C52.469 38.1523 53.1479 37.9782 53.7577 37.6721C54.4034 37.3474 55.0292 36.9388 55.5687 36.4598C56.0254 36.0549 56.4711 35.55 56.7032 34.9982C57.4537 33.2182 56.997 31.5948 55.8218 30.1406C54.8416 28.9284 53.5886 28.3309 52.0036 28.5395C50.7963 28.6988 49.7433 29.2247 48.7705 29.9246C46.9336 31.2443 45.5239 32.97 44.1981 34.7723C43.7203 35.4229 43.7648 35.4945 43.0463 35.0723C42.7365 34.8908 42.6871 34.76 42.8143 34.4896C43.9105 32.1627 44.8203 29.7789 44.998 27.1742C45.1943 24.3029 43.7969 21.8475 40.7367 21.7056C39.0751 21.629 37.5703 21.9475 36.5741 23.4573C36.4161 23.6955 36.2296 23.9276 36.1284 24.1905C35.6704 25.3806 35.6137 26.6175 35.7692 27.8692C36.0383 30.053 36.7876 32.0874 37.7196 34.0613C38.0863 34.8365 38.111 34.8254 37.374 35.2241C37.3049 35.2612 37.1617 35.3538 37.0913 35.3525C36.9839 35.3513 36.9037 35.3106 36.8481 35.2414C36.579 34.9057 36.3432 34.544 36.084 34.202C34.6927 32.3676 33.1978 30.6332 31.1856 29.4407C30.0215 28.7506 28.7698 28.2815 27.3996 28.5791C25.654 28.9568 24.5405 30.1357 23.9492 31.7528C23.3604 33.3626 23.5308 34.9316 24.8146 36.1809C25.3997 36.7499 26.0923 37.2659 26.828 37.6079C27.7835 38.0511 28.8254 38.3165 29.8413 38.6201C30.4363 38.7979 31.0474 38.9436 31.6609 39.0312C32.6053 39.1658 33.3793 39.2312 34.3273 39.3361C34.3878 39.3423 34.6631 39.3806 34.6779 39.6312C34.6989 39.999 34.7063 39.9608 34.6878 40.3546C34.6211 40.7558 33.8694 40.6866 33.6175 40.741C31.5634 40.9681 29.5562 41.2804 27.6193 42.0347C26.3935 42.5112 25.2565 43.1346 24.4455 44.2098C23.3987 45.5961 23.3913 47.4416 24.4011 49.1316C25.6528 51.2277 27.6427 51.94 29.9364 51.1079C31.3288 50.6031 32.5176 49.7599 33.5052 48.6909C34.6644 47.4367 35.7766 46.0405 36.8086 44.7678C36.8617 44.7023 37.037 44.5468 37.216 44.6221C37.4542 44.732 37.6024 44.8196 37.8665 45.0406C37.9937 45.1467 37.9616 45.3122 37.9258 45.3924C37.7369 45.8084 37.5382 46.2195 37.3592 46.6392C36.4543 48.7588 35.7396 50.9327 35.6951 53.2757Z" fill="#CA1824"/>
<path d="M35.4971 53.8503C35.4873 56.6661 36.9982 58.8819 39.9671 59.0325C42.1398 59.1424 43.9137 58.4351 44.8062 56.2538C45.2802 55.0946 45.2901 53.8762 45.1432 52.6541C44.8704 50.3926 44.0865 48.2878 43.1483 46.2324C42.7224 45.3004 42.7175 45.2942 43.6594 44.8535C43.7507 44.8116 43.968 44.8721 44.0285 44.9548C45.1049 46.4435 46.1937 47.9236 47.5751 49.1519C48.1713 49.6827 48.7762 50.2197 49.4478 50.6419C50.1292 51.0715 50.8723 51.4344 51.634 51.6924C52.1994 51.8838 52.8413 51.9418 53.4425 51.9134C54.8275 51.8468 55.8509 51.0678 56.6718 50.0173C57.8853 48.4656 58.1668 46.7558 57.3138 44.956C56.7113 43.6833 55.5793 42.9475 54.3399 42.3822C51.9735 41.302 49.4404 40.9255 46.8801 40.6959C46.4196 40.6551 46.1592 40.5675 46.2641 40.0453C46.2937 39.8959 46.2369 39.7244 46.2789 39.5824C46.3122 39.4701 46.4308 39.312 46.5258 39.3022C48.4775 39.0886 50.4242 38.8504 52.3092 38.2763C52.9956 38.0677 53.7042 37.8862 54.3399 37.5665C55.014 37.2283 55.6657 36.8012 56.2287 36.3024C56.7039 35.8802 57.1693 35.3531 57.4125 34.7779C58.1964 32.92 57.7199 31.2263 56.4928 29.7104C55.4707 28.4463 54.1622 27.8217 52.5092 28.0402C51.2489 28.2068 50.1514 28.7549 49.1367 29.4857C47.2208 30.8634 45.7493 32.662 44.3667 34.5433C43.868 35.221 43.8816 35.2025 43.1002 34.8248C42.7755 34.668 42.7916 34.531 42.9237 34.2483C44.0668 31.8201 45.0161 29.3339 45.2012 26.6156C45.4049 23.6208 43.9483 21.0581 40.7559 20.9112C39.0228 20.8309 37.4525 21.163 36.4131 22.7394C36.2489 22.9888 36.0539 23.2295 35.949 23.5036C35.4712 24.7454 35.412 26.0354 35.5737 27.3415C35.8551 29.6191 36.6366 31.7423 37.6093 33.8014C37.992 34.6112 38.0179 34.5989 37.2476 35.0149C37.1748 35.0544 37.0995 35.1198 37.0266 35.1186C36.9143 35.1174 36.7563 35.1038 36.6995 35.0322C36.4193 34.6816 36.1736 34.3051 35.902 33.9471C34.4503 32.0324 32.8912 30.224 30.7914 28.9796C29.5767 28.2599 28.2719 27.7711 26.8411 28.0809C25.0203 28.4747 23.8587 29.7055 23.2414 31.3918C22.6267 33.0706 22.8044 34.7075 24.1438 36.0111C24.7536 36.6049 25.477 37.1431 26.2449 37.4999C27.2423 37.9628 28.3286 38.2393 29.389 38.5566C30.01 38.743 30.647 38.8936 31.2876 38.9849C32.2727 39.1256 33.2665 39.1997 34.2565 39.3083C34.3195 39.3158 34.4256 39.3812 34.4269 39.4219C34.4367 39.8058 34.4886 40.207 34.3874 40.5638C34.3565 40.6737 33.8911 40.6601 33.6257 40.702C33.5356 40.7156 33.4442 40.728 33.3529 40.7379C31.2099 40.9749 29.0915 41.3304 27.0707 42.1167C25.7918 42.6142 24.6067 43.2636 23.7587 44.3857C22.6662 45.8325 22.66 47.757 23.713 49.5198C25.0191 51.7073 27.0942 52.4492 29.4878 51.5813C30.9408 51.0542 32.1802 50.1741 33.2109 49.0606C34.4207 47.7521 35.5095 46.3324 36.6563 44.9671C36.7291 44.8807 36.897 44.7647 36.9538 44.7943C37.2883 44.9622 37.6044 45.1671 37.9167 45.3745C37.9327 45.3844 37.8587 45.5362 37.8216 45.6189C37.6254 46.0522 37.4167 46.4806 37.2303 46.9188C36.2897 49.1384 35.5428 51.4073 35.4971 53.8503Z" fill="white"/>
<path d="M40.3417 60.5664C38.8381 60.5664 37.6407 60.2603 36.6111 59.6171C34.9569 58.5851 33.9533 56.9877 33.6299 54.8669C33.5299 54.2114 33.5101 53.5361 33.4916 52.8831C33.4842 52.6004 33.4756 52.3066 33.4608 52.0202C33.4558 51.9289 33.4571 51.8388 33.4583 51.7363C33.3978 51.7758 33.3373 51.8141 33.2781 51.8523C33.0262 52.0141 32.7892 52.1671 32.546 52.3128C31.0301 53.2238 29.7771 53.6658 28.4834 53.746C26.4552 53.8732 24.6899 53.1029 23.237 51.461C21.2125 49.1711 20.7545 46.6466 21.8766 43.9592C22.6234 42.1705 24.1974 41.1644 25.3158 40.5632C25.6232 40.3978 25.9293 40.2497 26.254 40.0917C26.3305 40.0546 26.4071 40.0176 26.4848 39.9793C26.3787 39.9213 26.2725 39.8645 26.1676 39.8077C25.7787 39.5979 25.4109 39.4004 25.0467 39.1769C23.3851 38.1597 22.3506 37.0648 21.7926 35.7315C21.0458 33.949 21.1421 32.0553 22.0766 30.1049C22.5617 29.0914 23.295 28.1976 24.2554 27.4471C25.1862 26.7212 26.1256 26.2892 27.0502 26.162C27.8711 26.083 28.2427 26.0991 28.8414 26.1521C30.0388 26.2571 31.214 26.683 32.3337 27.4175C32.4769 27.5113 32.6139 27.6137 32.746 27.7137C32.8423 27.7853 32.9386 27.8582 33.0361 27.9273C33.0768 27.9557 33.1201 27.9841 33.162 28.0125C33.2238 28.0532 33.2867 28.0952 33.3509 28.1421C33.3497 28.0149 33.3472 27.8878 33.3447 27.7619C33.3361 27.2915 33.3274 26.8052 33.3632 26.3311C33.4225 25.5448 33.4867 24.8387 33.678 24.1548C34.4681 21.3303 37.0098 19.4108 40.0034 19.3787C41.86 19.3601 43.1896 19.6947 44.3178 20.4662C45.8535 21.518 46.7818 23.066 47.0781 25.0683C47.1892 25.8176 47.225 26.5916 47.2583 27.3409C47.2707 27.6125 47.283 27.8915 47.3003 28.1692C47.3682 28.126 47.4361 28.0828 47.5052 28.0384C47.7904 27.8569 48.0842 27.6693 48.3866 27.4952C49.9297 26.6101 51.2024 26.2052 52.5159 26.183C54.4342 26.1534 56.102 26.9224 57.4686 28.4754C59.4807 30.7641 59.9461 33.2836 58.8524 35.9636C58.2993 37.3166 57.2254 38.393 55.47 39.351C55.149 39.5263 54.8231 39.6843 54.4787 39.8522C54.391 39.8954 54.3022 39.9373 54.2133 39.9818C54.2676 40.0102 54.3219 40.0373 54.3762 40.0657C54.6453 40.2028 54.8984 40.3324 55.1502 40.4743C56.5267 41.2508 58.0376 42.2816 58.819 44.0444C59.8819 46.4467 59.5585 48.8143 57.8611 51.0808C56.4353 52.9831 54.5824 53.9127 52.3604 53.8423C50.7654 53.7917 49.2545 53.2238 47.6065 52.0536C47.5336 52.0029 47.4213 51.9289 47.3213 51.8659C47.3954 52.9523 47.4299 54.0966 47.1781 55.2224C46.8226 56.8186 46.1091 58.0382 44.998 58.953C43.8055 59.9344 42.4489 60.4713 40.9638 60.5479C40.7527 60.5602 40.5441 60.5664 40.3417 60.5664ZM33.7064 51.2857V51.5104C33.7064 51.582 33.7052 51.6462 33.7052 51.7067C33.704 51.819 33.7027 51.9153 33.7077 52.0091C33.7225 52.298 33.7311 52.593 33.7398 52.8769C33.7583 53.5226 33.7768 54.1892 33.8755 54.8299C34.1879 56.8754 35.1532 58.416 36.7432 59.4072C37.8678 60.1084 39.2059 60.3936 40.9564 60.3022C42.3871 60.2282 43.6957 59.7097 44.8462 58.7629C45.9128 57.8839 46.5979 56.7087 46.9423 55.1693C47.2053 53.9917 47.146 52.7807 47.0633 51.6413L47.046 51.4005L47.2509 51.5264C47.2645 51.5351 47.5953 51.7388 47.7546 51.8511C49.3606 52.9918 50.8284 53.5448 52.3727 53.5942C54.5157 53.6608 56.2933 52.7658 57.6673 50.9314C59.3079 48.7415 59.6214 46.4565 58.5981 44.1431C57.8475 42.4458 56.3748 41.4434 55.0342 40.6879C54.7873 40.5484 54.5355 40.42 54.2688 40.2842C54.1441 40.22 54.017 40.1558 53.8874 40.0879L53.6726 39.9756L53.8899 39.8682C54.0553 39.7855 54.217 39.7077 54.3762 39.63C54.7182 39.4645 55.0404 39.3078 55.3564 39.1349C57.0587 38.2054 58.0981 37.1685 58.6277 35.871C59.6844 33.2848 59.2326 30.853 57.2871 28.6396C55.9711 27.1434 54.3725 26.3978 52.5245 26.4311C51.2568 26.4521 50.0198 26.8471 48.515 27.71C48.2175 27.8804 47.9249 28.0668 47.6435 28.247C47.5139 28.3297 47.3867 28.41 47.2608 28.489L47.0855 28.5976L47.0719 28.3914C47.0485 28.0433 47.0324 27.6915 47.0176 27.3508C46.9818 26.5743 46.9485 25.8411 46.8398 25.1028C46.5547 23.1709 45.6609 21.6797 44.1845 20.6687C43.1007 19.9268 41.8144 19.6058 40.012 19.6243C37.1283 19.6552 34.6816 21.5019 33.9212 24.2202C33.7361 24.8831 33.6731 25.5756 33.6151 26.3484C33.5805 26.8113 33.5879 27.2706 33.5966 27.7557C33.6003 27.9693 33.604 28.1841 33.604 28.4013V28.6815L33.3966 28.4927C33.2707 28.3779 33.1484 28.2964 33.0299 28.2174C32.9855 28.1878 32.9423 28.1581 32.8991 28.1285C32.7979 28.0581 32.6991 27.9841 32.6016 27.91C32.472 27.8125 32.3386 27.7125 32.2016 27.6224C31.1153 26.9101 29.9784 26.4978 28.8217 26.3966C28.2242 26.3447 27.8798 26.3287 27.0811 26.4064C26.2058 26.5262 25.3059 26.941 24.4097 27.6409C23.4802 28.3668 22.7703 29.2321 22.3012 30.211C21.3853 32.122 21.2952 33.8971 22.0223 35.6365C22.5667 36.9376 23.5406 37.9647 25.1775 38.9671C25.5355 39.1868 25.9009 39.3831 26.2861 39.5917C26.4614 39.6855 26.6367 39.7806 26.8132 39.8781L27.0194 39.9917L26.8083 40.0966C26.6589 40.1707 26.5108 40.2423 26.3626 40.3139C26.0404 40.4706 25.7355 40.6175 25.4331 40.7805C23.7073 41.7076 22.6506 42.747 22.105 44.0543C21.0223 46.6479 21.4655 49.0847 23.4221 51.2981C24.822 52.8806 26.5206 53.6226 28.4686 53.5003C29.7216 53.4226 30.94 52.9905 32.4201 52.1017C32.6596 51.9585 32.8954 51.8054 33.146 51.645C33.2657 51.5672 33.3904 51.4882 33.5188 51.4067L33.7064 51.2857ZM40.3725 58.3765C40.2417 58.3765 40.1083 58.3728 39.9725 58.3666C37.2456 58.2283 35.5594 56.2779 35.5705 53.2757V53.2744C35.6186 50.7376 36.4432 48.4687 37.2432 46.5849C37.3604 46.3084 37.4888 46.0331 37.6123 45.7665C37.6789 45.6233 37.7456 45.4801 37.811 45.3356C37.8172 45.3221 37.869 45.1998 37.7851 45.1295C37.5271 44.9122 37.3839 44.8307 37.1629 44.7283C37.058 44.6851 36.9308 44.8061 36.9024 44.8406L36.563 45.2591C35.6124 46.4343 34.6298 47.649 33.5941 48.7699C32.5448 49.9056 31.3276 50.729 29.9771 51.2191C27.6415 52.0659 25.5701 51.3265 24.2937 49.1896C23.2518 47.4441 23.2703 45.5529 24.3455 44.1308C25.2553 42.9272 26.549 42.3149 27.5736 41.9162C29.5784 41.136 31.656 40.8299 33.604 40.6151C33.6595 40.6027 33.7484 40.5965 33.8509 40.5891C34.1187 40.5706 34.5224 40.5435 34.5656 40.3373C34.5792 40.0262 34.578 39.9978 34.5644 39.7941L34.5545 39.6349C34.5471 39.5016 34.4002 39.4658 34.3138 39.4559C34.0385 39.425 33.7768 39.3979 33.5225 39.372C32.9016 39.3078 32.3152 39.2473 31.6436 39.151C31.0696 39.0695 30.4512 38.93 29.8055 38.7362C29.6167 38.6794 29.4278 38.6251 29.2377 38.5696C28.4143 38.3301 27.5625 38.082 26.7762 37.7178C26.0787 37.3944 25.3701 36.8919 24.7282 36.2673C23.4913 35.0637 23.1827 33.4873 23.8332 31.7084C24.4801 29.9432 25.7034 28.8186 27.3736 28.4569C28.9476 28.1162 30.3388 28.7939 31.2498 29.3333C33.3213 30.5616 34.8446 32.3627 36.184 34.1267C36.2951 34.2724 36.4 34.4218 36.5062 34.5699C36.6469 34.7674 36.7926 34.9723 36.9456 35.1637C36.9802 35.2069 37.0271 35.2279 37.095 35.2291C37.1259 35.2254 37.2246 35.1686 37.2678 35.1439C37.2864 35.1328 37.3036 35.1242 37.3172 35.1155C37.6246 34.9489 37.8098 34.8489 37.8419 34.7576C37.8727 34.6687 37.7863 34.4872 37.6444 34.186L37.611 34.1144C36.5099 31.7825 35.8865 29.8037 35.6495 27.8853C35.4742 26.4657 35.5939 25.2436 36.0161 24.1461C36.0976 23.9338 36.2297 23.7437 36.3568 23.5598C36.3963 23.503 36.4358 23.4462 36.4728 23.3894C37.3604 22.0439 38.6776 21.4871 40.7441 21.5822C42.0464 21.6427 43.1402 22.1278 43.9068 22.9882C44.8067 23.998 45.2388 25.4868 45.1227 27.1817C44.9326 29.9629 43.9068 32.4627 42.9278 34.5415C42.8353 34.739 42.8402 34.8069 43.1105 34.9649C43.3797 35.123 43.5636 35.2254 43.6574 35.2106C43.7389 35.197 43.8327 35.0686 43.987 34.8538C44.0216 34.8057 44.0586 34.7538 44.1006 34.6971C45.3708 32.9688 46.8078 31.1826 48.7002 29.8222C49.8322 29.0087 50.8778 28.5606 51.9888 28.4149C53.5479 28.21 54.87 28.763 55.9193 30.0604C57.2278 31.6788 57.5303 33.3552 56.818 35.0439C56.6081 35.5427 56.2156 36.05 55.6514 36.55C55.128 37.0141 54.4935 37.44 53.8145 37.7795C53.3022 38.0363 52.7393 38.2029 52.1962 38.3634C52.0801 38.398 51.9641 38.4325 51.8481 38.4671C50.0556 39.0127 48.4298 39.2189 46.4905 39.4312C46.1881 39.4769 46.1486 39.6114 46.1448 39.667C46.135 39.8238 46.1337 40.0065 46.1337 40.1398C46.1337 40.2176 46.1325 40.2793 46.1313 40.3151C46.1399 40.4682 46.4004 40.5262 46.6189 40.5459C48.9631 40.757 51.4567 41.099 53.8096 42.173C54.828 42.6371 56.0798 43.3445 56.7205 44.6987C57.5377 46.4244 57.3254 48.0996 56.0909 49.6797C55.1552 50.8759 54.1133 51.4857 52.9035 51.5437C52.4505 51.566 51.774 51.5462 51.1247 51.3265C50.4025 51.082 49.689 50.7389 49.0026 50.3068C48.3447 49.892 47.7583 49.3699 47.1917 48.8662C45.9115 47.7268 44.9277 46.417 43.7747 44.8233C43.7167 44.7456 43.6586 44.7295 43.5673 44.7678C43.1624 44.948 42.9291 45.0554 42.8859 45.1702C42.8439 45.2838 42.9488 45.5097 43.1241 45.885L43.1414 45.9232C43.8858 47.554 44.7771 49.7315 45.0647 52.1153C45.2388 53.5596 45.1363 54.6435 44.7339 55.6273C43.9833 57.4531 42.518 58.3765 40.3725 58.3765ZM35.8174 53.2769C35.8075 56.1334 37.4036 57.9888 39.9849 58.1197C42.2649 58.237 43.7426 57.3889 44.503 55.5335C44.8894 54.5904 44.9857 53.5448 44.8178 52.1449C44.5351 49.7945 43.6525 47.6404 42.9155 46.0257L42.8982 45.9887C42.6822 45.5257 42.5736 45.2937 42.6526 45.0838C42.734 44.8665 42.9945 44.7505 43.4685 44.5406C43.6673 44.4579 43.8451 44.5073 43.9722 44.6764C45.1178 46.259 46.093 47.5577 47.3546 48.681C47.9138 49.1785 48.4928 49.6933 49.1335 50.0982C49.8038 50.5204 50.5 50.8549 51.2024 51.0919C51.6876 51.2561 52.2702 51.3265 52.8899 51.2968C54.0232 51.2425 55.0058 50.6636 55.8946 49.5266C57.0674 48.0268 57.2698 46.438 56.4958 44.8036C55.8897 43.521 54.6861 42.8433 53.7059 42.3964C51.3864 41.3385 48.9187 40.999 46.5954 40.7904C46.1374 40.7496 45.898 40.5891 45.8844 40.3139C45.8856 40.2682 45.8868 40.2102 45.8868 40.1373C45.8881 40.0015 45.8893 39.8139 45.8992 39.6522C45.9041 39.5621 45.9584 39.2609 46.4596 39.1856C48.3903 38.9732 50.005 38.7683 51.7765 38.2301C51.8925 38.1943 52.0085 38.1597 52.1258 38.1252C52.6591 37.9671 53.2109 37.8042 53.7034 37.5573C54.3639 37.2265 54.9799 36.8142 55.4872 36.3636C56.0156 35.8945 56.397 35.4044 56.5909 34.9464C57.2649 33.349 56.9748 31.7566 55.7267 30.2147C54.7355 28.9889 53.4887 28.4643 52.0209 28.6581C50.9506 28.7988 49.9408 29.2321 48.8434 30.0209C46.9781 31.3616 45.5572 33.1305 44.2981 34.8415C44.2574 34.897 44.2203 34.9489 44.1858 34.9958C43.7759 35.5649 43.6747 35.5797 42.9846 35.1748C42.6797 34.9958 42.5266 34.8094 42.7032 34.4329C43.6722 32.375 44.6882 29.9024 44.8746 27.1619C44.9857 25.5337 44.5758 24.1091 43.7204 23.1487C42.9883 22.3278 41.9822 21.8821 40.7305 21.8254C38.7603 21.7352 37.511 22.2574 36.6765 23.5227C36.637 23.582 36.5975 23.64 36.5568 23.698C36.4321 23.877 36.3148 24.0461 36.2432 24.2313C35.8359 25.2892 35.7211 26.4731 35.8914 27.8508C36.1247 29.7419 36.742 31.6973 37.8308 34.0058L37.8641 34.0774C38.227 34.8427 38.2023 34.9131 37.4308 35.3291C37.4184 35.3353 37.4036 35.3452 37.3864 35.3538C37.2678 35.4217 37.1728 35.4735 37.0876 35.4723C36.9481 35.4698 36.8308 35.4155 36.7506 35.3143C36.5938 35.118 36.4457 34.9106 36.3025 34.7094C36.1976 34.5625 36.0926 34.4156 35.984 34.2724C34.6607 32.5281 33.1559 30.748 31.1215 29.542C29.7129 28.7075 28.5723 28.4458 27.4243 28.6939C25.8182 29.042 24.6875 30.0827 24.0628 31.7887C23.4481 33.4688 23.7369 34.9551 24.8973 36.0858C25.5195 36.692 26.2046 37.1771 26.8774 37.4894C27.6465 37.8462 28.4896 38.0918 29.3043 38.3288C29.4944 38.3844 29.6846 38.4399 29.8734 38.4955C30.5067 38.6856 31.1141 38.8226 31.6757 38.9016C32.3423 38.9967 32.9262 39.0572 33.5447 39.1214C33.8002 39.1473 34.0619 39.1744 34.3385 39.2053C34.6125 39.2349 34.7853 39.3892 34.7977 39.6152L34.8076 39.7732C34.8211 39.9867 34.8236 40.0188 34.8076 40.3509L34.8063 40.3657C34.7384 40.7694 34.2126 40.8064 33.8644 40.8299C33.7743 40.836 33.6891 40.8422 33.6398 40.8521C31.6967 41.0669 29.6389 41.3706 27.66 42.1396C26.6651 42.526 25.4121 43.1185 24.5393 44.274C23.5271 45.6146 23.5135 47.4021 24.5023 49.0575C25.7293 51.1129 27.6428 51.7956 29.8895 50.9808C31.2029 50.5043 32.3868 49.7019 33.4089 48.5958C34.4397 47.4811 35.4199 46.2689 36.3679 45.0974L36.7074 44.6777C36.7938 44.5715 37.0197 44.3962 37.258 44.495C37.5049 44.6085 37.6604 44.6987 37.9406 44.9332C38.0999 45.0665 38.1011 45.2789 38.0332 45.4307C37.9678 45.5751 37.8999 45.7196 37.8332 45.864C37.7098 46.1282 37.5826 46.4022 37.4678 46.675C36.679 48.5428 35.8643 50.7821 35.8174 53.2769Z" fill="white"/>
<path d="M36.1658 39.0079C36.1658 39.1363 36.1423 39.2338 36.0954 39.3029C36.0485 39.3721 35.9868 39.4227 35.9102 39.4548C35.8337 39.4869 35.746 39.5054 35.6485 39.5103C35.551 39.5153 35.451 39.519 35.3485 39.519V42.1768H34.9399V36.6562H35.3485C35.5535 36.6562 35.7102 36.6735 35.8213 36.7069C35.9324 36.7414 36.0127 36.7834 36.0645 36.8352C36.1164 36.8871 36.146 36.9414 36.1547 37.0019C36.1633 37.0612 36.167 37.1167 36.167 37.1686V39.0079H36.1658ZM35.7572 37.1673C35.7572 37.1167 35.7497 37.0772 35.7362 37.0488C35.7226 37.0216 35.6991 37.0007 35.667 36.9883C35.6349 36.976 35.593 36.9686 35.5411 36.9661C35.4893 36.9636 35.4251 36.9624 35.3473 36.9624V39.2116C35.3979 39.2116 35.4485 39.2103 35.4979 39.2091C35.5473 39.2079 35.5905 39.1992 35.6288 39.1869C35.667 39.1745 35.6979 39.1536 35.7214 39.1264C35.7448 39.0992 35.7572 39.0597 35.7572 39.0079V37.1673Z" fill="#CA1824"/>
<path d="M38.4753 42.1768H38.0902L38.0025 41.1188H37.7186L37.6593 42.1768H37.2495L37.6297 37.2698H38.0667L38.4753 42.1768ZM37.9791 40.7843L37.8606 38.2919L37.7396 40.7843H37.9791Z" fill="#CA1824"/>
<path d="M42.6692 37.2698V41.8694H43.0778V42.1768H42.2593V37.2698H42.6692Z" fill="#CA1824"/>
<path d="M45.3466 37.2698H45.7071V42.1768H45.3491V39.2116L45.0714 41.9718H44.9121L44.6344 39.2116V42.1768H44.2764V37.2698H44.6368L44.9924 40.2337L45.3466 37.2698Z" fill="#CA1824"/>
<path d="M18.4073 43.8321C18.4073 43.189 18.3875 42.6359 18.3468 42.1742C18.3073 41.7126 18.2542 41.3101 18.1875 40.9682C18.1221 40.625 18.0444 40.33 17.9542 40.0831C17.8641 39.8362 17.7765 39.5979 17.6925 39.3658C17.6086 39.135 17.5246 38.9066 17.4419 38.6807C17.3592 38.4548 17.2852 38.1993 17.2197 37.9141C17.1543 37.629 17.1 37.2994 17.0605 36.9266C17.0198 36.5538 17 36.1056 17 35.5835V33.3886C17 33.2429 17.0136 33.0775 17.0407 32.8924C17.0679 32.7072 17.121 32.5344 17.1975 32.3726C17.274 32.2122 17.3814 32.0751 17.5197 31.9628C17.6567 31.8505 17.8357 31.7949 18.0555 31.7949C18.2752 31.7949 18.4542 31.8505 18.5912 31.9628C18.7282 32.0751 18.8356 32.2122 18.9134 32.3726C18.9899 32.5331 19.043 32.7072 19.0702 32.8924C19.0973 33.0775 19.1109 33.2429 19.1109 33.3886V37.4685H18.4073V33.3886C18.4073 33.2429 18.3974 33.1232 18.3764 33.0294C18.3567 32.9356 18.3295 32.8627 18.2962 32.8109C18.2629 32.759 18.2258 32.7232 18.1838 32.701C18.1419 32.68 18.0987 32.6689 18.0542 32.6689C18.0098 32.6689 17.9666 32.68 17.9246 32.701C17.8826 32.722 17.8444 32.7578 17.8123 32.8096C17.7789 32.8615 17.753 32.9343 17.732 33.0281C17.7123 33.122 17.7024 33.2417 17.7024 33.3874V35.1588C17.7024 35.8439 17.7382 36.4155 17.8098 36.8759C17.8814 37.3364 17.9703 37.7376 18.0777 38.0795C18.1851 38.4215 18.2925 38.7387 18.4023 39.0301C18.5122 39.3214 18.6245 39.6239 18.7418 39.9349C18.8591 40.2473 18.9492 40.6176 19.0146 41.0459C19.0801 41.4755 19.1122 42.0088 19.1122 42.647V46.2047C19.1122 46.2776 19.1072 46.4097 19.0961 46.601C19.085 46.7923 19.0467 46.9886 18.9813 47.1898C18.9159 47.3911 18.8109 47.5688 18.6678 47.7231C18.5246 47.8787 18.3209 47.9552 18.0567 47.9552C17.7925 47.9552 17.5888 47.8774 17.4456 47.7231C17.3024 47.5688 17.1987 47.3911 17.1321 47.1898C17.0667 46.9899 17.0272 46.7936 17.0173 46.6022C17.0062 46.4109 17.0012 46.2788 17.0012 46.206V40.9645H17.7049V46.2097C17.7049 46.2825 17.7061 46.3689 17.7098 46.4689C17.7135 46.5689 17.7259 46.6652 17.7481 46.7553C17.7703 46.8467 17.8049 46.9232 17.853 46.9874C17.9012 47.0516 17.969 47.0824 18.0567 47.0824C18.1443 47.0824 18.2122 47.0503 18.2604 46.9874C18.3085 46.9232 18.3431 46.8467 18.3653 46.7553C18.3875 46.664 18.3999 46.5689 18.4036 46.4689C18.4073 46.3689 18.4098 46.2825 18.4098 46.2097V43.8321H18.4073Z" fill="#313638"/>
<path d="M28.8025 46.2101C28.8025 46.283 28.8037 46.3694 28.8074 46.4694C28.8111 46.5694 28.8235 46.6657 28.8457 46.7558C28.8679 46.8471 28.9025 46.9237 28.9506 46.9879C28.9988 47.0521 29.0667 47.0841 29.1543 47.0841C29.242 47.0841 29.3099 47.0521 29.358 46.9879C29.4062 46.9237 29.4407 46.8471 29.4629 46.7558C29.4852 46.6644 29.4975 46.5694 29.5012 46.4694C29.5049 46.3694 29.5062 46.283 29.5062 46.2101V31.9312H30.2098V46.2089C30.2098 46.2818 30.2049 46.4138 30.1937 46.6052C30.1826 46.7965 30.1444 46.9916 30.0789 47.1928C30.0123 47.3928 29.9086 47.5705 29.7654 47.7261C29.6222 47.8804 29.4185 47.9581 29.1556 47.9581C28.8914 47.9581 28.6877 47.8804 28.5445 47.7261C28.4013 47.5718 28.2964 47.394 28.231 47.1928C28.1655 46.9928 28.126 46.7965 28.1161 46.6052C28.105 46.4138 28.1001 46.2818 28.1001 46.2089V31.9312H28.8037V46.2101H28.8025Z" fill="#313638"/>
<path d="M40.606 43.8321C40.606 43.189 40.5863 42.6359 40.5455 42.1742C40.506 41.7126 40.4517 41.3101 40.3863 40.9682C40.3208 40.625 40.2418 40.33 40.153 40.0831C40.0628 39.8362 39.9752 39.5979 39.8913 39.3658C39.8073 39.135 39.7234 38.9066 39.6407 38.6807C39.558 38.4548 39.4839 38.1993 39.4185 37.9141C39.353 37.629 39.2987 37.2994 39.2592 36.9266C39.2185 36.5538 39.1987 36.1056 39.1987 35.5835V33.3886C39.1987 33.2429 39.2123 33.0775 39.2395 32.8924C39.2666 32.7072 39.3197 32.5344 39.3962 32.3726C39.4728 32.2122 39.5802 32.0751 39.7184 31.9628C39.8555 31.8505 40.0345 31.7949 40.2542 31.7949C40.4739 31.7949 40.6529 31.8505 40.7899 31.9628C40.927 32.0751 41.0344 32.2122 41.1121 32.3726C41.1887 32.5331 41.2417 32.7072 41.2689 32.8924C41.2961 33.0775 41.3096 33.2429 41.3096 33.3886V37.4685H40.606V33.3886C40.606 33.2429 40.5961 33.1232 40.5751 33.0294C40.5554 32.9356 40.5282 32.8627 40.4949 32.8109C40.4616 32.759 40.4245 32.7232 40.3826 32.701C40.3406 32.68 40.2974 32.6689 40.253 32.6689C40.2085 32.6689 40.1653 32.68 40.1233 32.701C40.0814 32.722 40.0431 32.7578 40.011 32.8096C39.9777 32.8615 39.9517 32.9343 39.9308 33.0281C39.911 33.122 39.9011 33.2417 39.9011 33.3874V35.1588C39.9011 35.8439 39.9369 36.4155 40.0085 36.8759C40.0801 37.3364 40.169 37.7376 40.2764 38.0795C40.3838 38.4215 40.4912 38.7387 40.6011 39.0301C40.7109 39.3214 40.8233 39.6239 40.9405 39.9349C41.0578 40.2473 41.1479 40.6176 41.2134 41.0459C41.2788 41.4755 41.3109 42.0088 41.3109 42.647V46.2047C41.3109 46.2776 41.3059 46.4097 41.2948 46.601C41.2837 46.7923 41.2455 46.9886 41.18 47.1898C41.1146 47.3911 41.0097 47.5688 40.8665 47.7231C40.7233 47.8787 40.5196 47.9552 40.2554 47.9552C39.9912 47.9552 39.7876 47.8774 39.6444 47.7231C39.5012 47.5688 39.3962 47.3911 39.3308 47.1898C39.2654 46.9899 39.2259 46.7936 39.216 46.6022C39.2049 46.4109 39.2 46.2788 39.2 46.206V40.9645H39.9036V46.2097C39.9036 46.2825 39.9048 46.3689 39.9085 46.4689C39.9122 46.5689 39.9246 46.6652 39.9468 46.7553C39.969 46.8467 40.0036 46.9232 40.0517 46.9874C40.0999 47.0516 40.1678 47.0824 40.2554 47.0824C40.3431 47.0824 40.411 47.0503 40.4591 46.9874C40.5072 46.9232 40.5418 46.8467 40.564 46.7553C40.5863 46.664 40.5986 46.5689 40.6023 46.4689C40.606 46.3689 40.6085 46.2825 40.6085 46.2097V43.8321H40.606Z" fill="#313638"/>
<path d="M51.0039 39.2169H51.7076V31.9312H52.4124V47.6668H51.7076V40.0909H51.0039V47.6668H50.3003V31.9312H51.0039V39.2169Z" fill="#313638"/>
<path d="M62.3667 31.9319H61.6631V47.6663H62.3667V31.9319Z" fill="#313638"/>
<path d="M52.4039 21.5047C52.4039 21.6751 52.3595 21.7936 52.2718 21.8603C52.1842 21.9269 52.0521 21.9602 51.8756 21.9602C51.9632 21.9602 52.041 21.9726 52.1064 21.9997C52.1718 22.0257 52.2274 22.0602 52.2718 22.1022C52.3163 22.1454 52.3484 22.1936 52.3706 22.2479C52.3928 22.3022 52.4039 22.3577 52.4039 22.4145V25.1464H51.7003V22.301C51.7003 22.2442 51.6805 22.1997 51.6398 22.1689C51.5991 22.138 51.546 22.1158 51.4806 22.101C51.4139 22.0874 51.3398 22.0788 51.2546 22.0763C51.1707 22.0738 51.0843 22.0726 50.9954 22.0726V25.1452H50.2905V19H50.9954C51.1719 19 51.3435 19.0025 51.5126 19.0086C51.6818 19.0148 51.8311 19.0358 51.9632 19.0716C52.0953 19.1074 52.2015 19.1629 52.2817 19.2407C52.362 19.3173 52.4027 19.4271 52.4027 19.5691V21.5047H52.4039ZM51.699 19.5703C51.699 19.5135 51.6867 19.4691 51.6632 19.4382C51.6398 19.4074 51.6003 19.3852 51.5447 19.3703C51.4892 19.3555 51.4176 19.3481 51.3275 19.3457C51.2374 19.3432 51.1263 19.3419 50.9942 19.3419V21.8454C51.0818 21.8454 51.1682 21.8442 51.2534 21.8417C51.3374 21.8393 51.4127 21.8306 51.4793 21.817C51.546 21.8035 51.5978 21.78 51.6386 21.7492C51.6793 21.7183 51.699 21.6739 51.699 21.6171V19.5703Z" fill="white"/>
<path d="M54.5154 20.0258H53.8118V22.0738H54.5154V22.4157H53.8118V24.8056H54.5154V25.1463H53.1069V19.6838H54.5154V20.0258Z" fill="white"/>
<path d="M57.1554 24.6661C57.1554 24.7871 57.1159 24.8797 57.0369 24.9451C56.9579 25.0105 56.8418 25.0587 56.6875 25.0895C56.6135 25.1031 56.5246 25.1155 56.4184 25.1229C56.3123 25.1315 56.1654 25.1377 55.9777 25.1426C55.7901 25.1451 55.6259 25.1463 55.4827 25.1463H55.042V19.6838C55.1926 19.6838 55.3432 19.6838 55.4963 19.6851C55.6481 19.6863 55.8037 19.6875 55.9617 19.69C56.2839 19.6949 56.5233 19.7098 56.6764 19.7357C56.8344 19.7641 56.9529 19.8098 57.0344 19.8727C57.1147 19.9357 57.1554 20.0258 57.1554 20.1418V24.6661ZM56.4517 20.1394C56.4517 20.0949 56.4184 20.0665 56.353 20.0542C56.29 20.0394 56.0888 20.0332 55.7481 20.0332V24.8019C56.0888 24.8019 56.2913 24.7945 56.353 24.7809C56.4184 24.7673 56.4517 24.7377 56.4517 24.692V20.1394Z" fill="white"/>
</svg>
