<svg width="335" height="362" viewBox="0 0 335 362" fill="none" xmlns="http://www.w3.org/2000/svg">
<g opacity="0.04">
<path d="M124.776 302.39C124.689 327.121 137.98 346.582 164.093 347.904C183.203 348.869 198.806 342.657 206.656 323.499C210.826 313.319 210.913 302.618 209.62 291.885C207.221 272.022 200.326 253.537 192.074 235.485C188.328 227.3 188.285 227.245 196.569 223.375C197.373 223.006 199.284 223.537 199.816 224.264C209.284 237.339 218.861 250.339 231.011 261.126C236.255 265.788 241.575 270.504 247.482 274.212C253.476 277.985 260.012 281.173 266.712 283.439C271.685 285.119 277.331 285.629 282.619 285.379C294.801 284.794 303.803 277.953 311.023 268.726C321.696 255.098 324.172 240.082 316.669 224.275C311.371 213.097 301.414 206.635 290.512 201.669C269.698 192.183 247.417 188.876 224.898 186.859C220.848 186.502 218.557 185.732 219.479 181.146C219.74 179.834 219.241 178.327 219.61 177.08C219.903 176.093 220.945 174.706 221.781 174.619C238.948 172.743 256.071 170.651 272.651 165.609C278.688 163.777 284.92 162.183 290.512 159.375C296.441 156.405 302.174 152.653 307.125 148.273C311.305 144.565 315.399 139.936 317.538 134.884C324.433 118.567 320.241 103.692 309.449 90.3777C300.458 79.2757 288.949 73.7897 274.41 75.7087C263.324 77.1723 253.671 81.9861 244.746 88.4045C227.894 100.504 214.952 116.301 202.791 132.824C198.404 138.776 198.524 138.613 191.65 135.296C188.795 133.919 188.936 132.715 190.098 130.232C200.152 108.906 208.502 87.071 210.131 63.1972C211.922 36.8948 199.11 14.3871 171.031 13.097C155.787 12.3922 141.975 15.3087 132.833 29.1537C131.389 31.3438 129.673 33.458 128.75 35.8649C124.548 46.7718 124.027 58.1015 125.449 69.5722C127.925 89.5754 134.798 108.223 143.354 126.308C146.72 133.42 146.948 133.311 140.173 136.965C139.532 137.312 138.87 137.887 138.229 137.876C137.241 137.865 135.851 137.746 135.352 137.117C132.887 134.038 130.726 130.731 128.338 127.587C115.569 110.771 101.855 94.8879 83.3856 83.9594C72.7014 77.6385 61.2245 73.3452 48.6401 76.0665C32.6246 79.525 22.4072 90.3344 16.9782 105.144C11.571 119.889 13.1345 134.266 24.9154 145.715C30.2792 150.93 36.642 155.657 43.3957 158.79C52.1689 162.856 61.7239 165.284 71.0509 168.07C76.5125 169.708 82.1152 171.03 87.7505 171.833C96.4152 173.069 105.156 173.719 113.864 174.673C114.418 174.738 115.351 175.313 115.362 175.671C115.449 179.042 115.905 182.566 115.015 185.699C114.743 186.664 110.65 186.545 108.316 186.914C107.523 187.033 106.719 187.141 105.916 187.228C87.0665 189.31 68.4342 192.432 50.6597 199.338C39.4108 203.708 28.9871 209.41 21.5277 219.266C11.9184 231.972 11.8641 248.875 21.126 264.357C32.6137 283.569 50.866 290.085 71.9196 282.463C84.6994 277.833 95.6008 270.103 104.667 260.324C115.308 248.831 124.885 236.363 134.972 224.372C135.612 223.613 137.089 222.594 137.589 222.854C140.531 224.329 143.311 226.129 146.058 227.95C146.199 228.037 145.548 229.37 145.222 230.097C143.495 233.902 141.66 237.664 140.021 241.513C131.747 261.007 125.178 280.934 124.776 302.39Z" fill="#E7DEE1"/>
<path d="M167.386 362C154.184 362 143.67 359.309 134.63 353.657C120.105 344.587 111.293 330.547 108.453 311.908C107.575 306.147 107.402 300.212 107.239 294.473C107.174 291.988 107.098 289.406 106.968 286.889C106.925 286.086 106.936 285.294 106.947 284.393C106.416 284.741 105.884 285.077 105.364 285.413C103.153 286.835 101.072 288.18 98.9365 289.46C85.6259 297.467 74.6241 301.351 63.2646 302.056C45.4558 303.174 29.9557 296.404 17.1979 281.974C-0.578361 261.848 -4.5997 239.661 5.25315 216.042C11.8109 200.321 25.6309 191.478 35.4512 186.195C38.1502 184.741 40.8383 183.439 43.689 182.05C44.361 181.725 45.0331 181.399 45.7159 181.063C44.7838 180.553 43.8516 180.054 42.9302 179.555C39.5159 177.71 36.2858 175.974 33.0882 174.011C18.4987 165.071 9.4154 155.447 4.51607 143.73C-2.04165 128.063 -1.19619 111.42 7.0091 94.2777C11.2689 85.3703 17.7074 77.5152 26.1403 70.9187C34.3131 64.5392 42.5617 60.7419 50.6803 59.6244C57.8884 58.93 61.151 59.0711 66.408 59.5376C76.922 60.4598 87.2409 64.2029 97.0721 70.6583C98.3295 71.4829 99.5326 72.3834 100.692 73.2622C101.538 73.8915 102.383 74.5316 103.24 75.1392C103.597 75.3887 103.977 75.6383 104.345 75.8878C104.887 76.2458 105.44 76.6147 106.004 77.027C105.993 75.9095 105.971 74.792 105.949 73.6854C105.874 69.5517 105.798 65.277 106.112 61.1108C106.632 54.1997 107.196 47.9937 108.876 41.9831C115.813 17.1595 138.131 0.288475 164.416 0.00638835C180.718 -0.156354 192.392 2.78386 202.299 9.5648C215.783 18.8086 223.934 32.4138 226.536 50.0117C227.511 56.5974 227.826 63.4 228.118 69.9857C228.227 72.3726 228.335 74.8246 228.487 77.2657C229.083 76.886 229.679 76.5062 230.286 76.1156C232.79 74.5208 235.37 72.8716 238.025 71.3419C251.574 63.5628 262.75 60.0041 274.282 59.8088C291.127 59.5484 305.77 66.3077 317.769 79.9564C335.437 100.071 339.524 122.215 329.92 145.769C325.064 157.66 315.634 167.121 300.221 175.54C297.402 177.081 294.541 178.47 291.517 179.945C290.747 180.325 289.967 180.694 289.186 181.085C289.663 181.334 290.14 181.573 290.617 181.822C292.98 183.027 295.202 184.166 297.413 185.414C309.499 192.238 322.766 201.297 329.627 216.79C338.96 237.903 336.12 258.713 321.216 278.632C308.697 295.352 292.427 303.521 272.917 302.903C258.912 302.458 245.645 297.467 231.175 287.182C230.535 286.737 229.549 286.086 228.671 285.533C229.321 295.08 229.625 305.138 227.414 315.032C224.292 329.061 218.027 339.78 208.272 347.82C197.801 356.445 185.889 361.165 172.849 361.837C170.996 361.946 169.164 362 167.386 362ZM109.125 280.433V282.408C109.125 283.037 109.114 283.601 109.114 284.133C109.104 285.12 109.093 285.967 109.136 286.791C109.266 289.33 109.342 291.923 109.418 294.418C109.581 300.093 109.743 305.951 110.61 311.582C113.353 329.56 121.829 343.1 135.79 351.812C145.664 357.975 157.414 360.481 172.784 359.678C185.347 359.027 196.836 354.47 206.938 346.149C216.303 338.424 222.319 328.095 225.343 314.566C227.652 304.216 227.132 293.572 226.406 283.558L226.254 281.442L228.053 282.549C228.172 282.625 231.077 284.415 232.476 285.402C246.577 295.427 259.465 300.288 273.025 300.722C291.842 301.308 307.45 293.442 319.514 277.32C333.92 258.073 336.673 237.99 327.687 217.658C321.097 202.74 308.166 193.93 296.394 187.29C294.227 186.064 292.015 184.936 289.674 183.743C288.579 183.178 287.463 182.614 286.325 182.018L284.439 181.03L286.346 180.086C287.799 179.359 289.219 178.676 290.617 177.992C293.62 176.539 296.449 175.161 299.223 173.642C314.171 165.472 323.297 156.359 327.947 144.956C337.226 122.226 333.259 100.853 316.176 81.3994C304.621 68.2498 290.585 61.6967 274.358 61.9896C263.226 62.174 252.366 65.6459 239.153 73.2297C236.54 74.7269 233.971 76.3652 231.5 77.9492C230.362 78.6761 229.245 79.3813 228.14 80.0757L226.601 81.0305L226.481 79.2186C226.276 76.159 226.135 73.0669 226.005 70.0725C225.69 63.2481 225.398 56.8035 224.444 50.3155C221.94 33.3361 214.092 20.2299 201.129 11.3441C191.612 4.82356 180.317 2.00269 164.492 2.16544C139.172 2.43667 117.688 18.6675 111.011 42.5581C109.385 48.3843 108.833 54.4709 108.323 61.2627C108.02 65.3312 108.085 69.3672 108.161 73.6311C108.193 75.5081 108.226 77.3959 108.226 79.3054V81.7682L106.405 80.1083C105.299 79.0993 104.226 78.3832 103.185 77.6888C102.795 77.4284 102.416 77.168 102.036 76.9077C101.148 76.2892 100.281 75.6383 99.4242 74.9873C98.2861 74.1302 97.1155 73.2514 95.9123 72.4594C86.3738 66.1992 76.3909 62.5755 66.2346 61.6858C60.9884 61.2301 57.9642 61.0891 50.9513 61.7726C43.2663 62.825 35.3645 66.4704 27.4952 72.6221C19.3333 79.0016 13.1007 86.6071 8.98184 95.2108C0.939143 112.006 0.147871 127.607 6.53217 142.894C11.3123 154.33 19.8644 163.356 34.2372 172.166C37.3806 174.097 40.589 175.823 43.9708 177.656C45.51 178.481 47.0491 179.316 48.5991 180.173L50.4093 181.171L48.5558 182.094C47.2443 182.745 45.9436 183.374 44.6428 184.003C41.8138 185.381 39.1365 186.672 36.4809 188.104C21.3277 196.252 12.0493 205.387 7.25839 216.877C-2.2476 239.672 1.64368 261.089 18.8238 280.542C31.1155 294.451 46.0303 300.972 63.1345 299.897C74.1363 299.214 84.8346 295.417 97.8309 287.605C99.9337 286.346 102.004 285.001 104.204 283.591C105.256 282.907 106.35 282.213 107.478 281.497L109.125 280.433ZM167.657 342.753C166.508 342.753 165.337 342.72 164.145 342.666C140.201 341.451 125.395 324.309 125.493 297.923V297.912C125.915 275.616 133.156 255.675 140.18 239.119C141.209 236.688 142.337 234.269 143.421 231.925C144.006 230.667 144.591 229.408 145.166 228.139C145.22 228.02 145.675 226.945 144.938 226.327C142.673 224.417 141.415 223.701 139.475 222.801C138.554 222.421 137.437 223.484 137.188 223.788L134.207 227.466C125.861 237.795 117.233 248.471 108.139 258.322C98.9256 268.304 88.2382 275.54 76.3801 279.848C55.8723 287.29 37.6841 280.791 26.4763 262.011C17.328 246.67 17.4906 230.048 26.9316 217.55C34.9201 206.971 46.2796 201.59 55.2761 198.086C72.879 191.229 91.1214 188.538 108.226 186.65C108.713 186.542 109.494 186.488 110.394 186.423C112.746 186.26 116.29 186.021 116.669 184.209C116.789 181.475 116.778 181.226 116.659 179.435L116.572 178.036C116.507 176.864 115.217 176.549 114.458 176.463C112.041 176.191 109.743 175.953 107.51 175.725C102.058 175.161 96.9095 174.629 91.013 173.783C85.9728 173.067 80.5423 171.841 74.8734 170.137C73.215 169.638 71.5566 169.161 69.8874 168.673C62.6576 166.568 55.1786 164.387 48.274 161.187C42.1498 158.344 35.9281 153.928 30.2917 148.438C19.4308 137.86 16.721 124.005 22.4333 108.371C28.113 92.8564 38.8547 82.9725 53.5202 79.7936C67.3402 76.7991 79.5559 82.7555 87.5553 87.4968C105.743 98.292 119.119 114.121 130.88 129.625C131.855 130.906 132.776 132.218 133.709 133.52C134.944 135.256 136.223 137.057 137.567 138.739C137.871 139.119 138.283 139.303 138.879 139.314C139.15 139.281 140.017 138.782 140.396 138.565C140.559 138.468 140.711 138.392 140.83 138.316C143.529 136.851 145.155 135.972 145.437 135.169C145.708 134.388 144.949 132.793 143.702 130.146L143.41 129.517C133.741 109.022 128.267 91.6304 126.186 74.7703C124.647 62.2934 125.698 51.5524 129.405 41.9072C130.121 40.041 131.281 38.3702 132.397 36.7536C132.744 36.2546 133.091 35.7555 133.416 35.2564C141.209 23.4305 152.775 18.5373 170.92 19.3728C182.355 19.9044 191.959 24.1682 198.69 31.7303C206.592 40.6052 210.385 53.6897 209.366 68.5861C207.697 93.03 198.69 115 190.094 133.271C189.281 135.007 189.325 135.603 191.698 136.992C194.061 138.381 195.676 139.281 196.5 139.151C197.216 139.032 198.039 137.904 199.394 136.016C199.698 135.593 200.023 135.137 200.391 134.638C211.545 119.449 224.162 103.749 240.778 91.7932C250.718 84.6434 259.899 80.705 269.654 79.4247C283.344 77.6237 294.953 82.4843 304.166 93.8871C315.656 108.111 318.311 122.844 312.057 137.687C310.214 142.07 306.768 146.529 301.814 150.923C297.218 155.002 291.647 158.745 285.685 161.729C281.187 163.986 276.244 165.45 271.475 166.861C270.456 167.165 269.437 167.468 268.418 167.772C252.68 172.568 238.405 174.38 221.376 176.246C218.721 176.647 218.374 177.83 218.341 178.318C218.255 179.696 218.244 181.302 218.244 182.473C218.244 183.157 218.233 183.699 218.222 184.014C218.298 185.359 220.585 185.869 222.504 186.043C243.087 187.898 264.982 190.903 285.642 200.342C294.584 204.422 305.575 210.639 311.201 222.54C318.376 237.708 316.512 252.431 305.673 266.318C297.457 276.831 288.308 282.191 277.686 282.701C273.708 282.896 267.768 282.723 262.067 280.791C255.726 278.643 249.461 275.627 243.434 271.83C237.657 268.184 232.508 263.595 227.533 259.168C216.293 249.154 207.654 237.643 197.53 223.636C197.021 222.953 196.511 222.812 195.709 223.148C192.154 224.732 190.105 225.676 189.726 226.685C189.357 227.683 190.279 229.669 191.818 232.967L191.969 233.303C198.505 247.635 206.331 266.774 208.857 287.724C210.385 300.418 209.486 309.944 205.952 318.591C199.362 334.638 186.496 342.753 167.657 342.753ZM127.66 297.934C127.574 323.039 141.589 339.346 164.254 340.496C184.274 341.527 197.248 334.073 203.925 317.767C207.318 309.478 208.163 300.288 206.689 287.985C204.207 267.327 196.457 248.395 189.986 234.204L189.834 233.878C187.937 229.81 186.983 227.77 187.677 225.926C188.393 224.016 190.68 222.996 194.842 221.152C196.587 220.425 198.148 220.859 199.264 222.345C209.323 236.254 217.886 247.668 228.964 257.541C233.874 261.913 238.957 266.438 244.583 269.996C250.469 273.707 256.582 276.647 262.749 278.73C267.009 280.173 272.125 280.791 277.567 280.531C287.517 280.054 296.145 274.965 303.949 264.973C314.247 251.791 316.024 237.827 309.228 223.463C303.906 212.19 293.338 206.234 284.731 202.306C264.365 193.008 242.697 190.025 222.298 188.191C218.276 187.833 216.173 186.423 216.054 184.003C216.065 183.602 216.076 183.092 216.076 182.452C216.087 181.258 216.098 179.609 216.184 178.188C216.228 177.396 216.705 174.748 221.105 174.087C238.058 172.221 252.235 170.42 267.79 165.689C268.809 165.374 269.828 165.071 270.857 164.767C275.54 163.378 280.385 161.946 284.71 159.776C290.509 156.868 295.917 153.245 300.372 149.285C305.012 145.162 308.361 140.855 310.063 136.829C315.981 122.79 313.434 108.794 302.475 95.2433C293.771 84.4697 282.824 79.8587 269.936 81.5621C260.538 82.7989 251.672 86.6071 242.036 93.5399C225.658 105.323 213.182 120.87 202.126 135.907C201.768 136.395 201.443 136.851 201.139 137.263C197.541 142.265 196.652 142.395 190.593 138.837C187.916 137.263 186.572 135.625 188.122 132.316C196.63 114.23 205.551 92.4984 207.188 68.4125C208.163 54.102 204.565 41.5817 197.053 33.1408C190.625 25.9258 181.791 22.0092 170.8 21.5101C153.501 20.7181 142.532 25.3074 135.204 36.4282C134.858 36.9489 134.511 37.4589 134.153 37.9688C133.058 39.542 132.029 41.0284 131.4 42.6558C127.823 51.9538 126.815 62.3585 128.311 74.4665C130.359 91.088 135.779 108.274 145.339 128.562L145.632 129.191C148.819 135.918 148.602 136.537 141.827 140.193C141.719 140.247 141.589 140.334 141.437 140.41C140.396 141.007 139.562 141.462 138.814 141.451C137.589 141.43 136.559 140.952 135.855 140.063C134.478 138.338 133.178 136.515 131.92 134.746C130.999 133.455 130.078 132.164 129.124 130.906C117.504 115.575 104.291 99.9303 86.428 89.3303C74.0605 81.9961 64.045 79.696 53.9646 81.8767C39.8628 84.9363 29.934 94.0824 24.4494 109.076C19.0515 123.843 21.5878 136.905 31.7767 146.844C37.2397 152.171 43.2554 156.434 49.1628 159.179C55.9156 162.315 63.3188 164.474 70.4727 166.557C72.1419 167.045 73.8112 167.534 75.4696 168.022C81.0301 169.693 86.363 170.897 91.2948 171.591C97.148 172.427 102.275 172.958 107.705 173.522C109.949 173.75 112.247 173.989 114.675 174.26C117.081 174.521 118.599 175.877 118.707 177.862L118.794 179.251C118.913 181.128 118.935 181.41 118.794 184.329L118.783 184.459C118.187 188.007 113.569 188.332 110.513 188.538C109.721 188.592 108.974 188.647 108.54 188.733C91.4791 190.621 73.4101 193.29 56.0349 200.049C47.2984 203.445 36.2966 208.653 28.6333 218.808C19.7452 230.591 19.6259 246.301 28.3081 260.85C39.0823 278.915 55.8831 284.914 75.6105 277.754C87.1434 273.566 97.5382 266.514 106.513 256.792C115.564 246.995 124.17 236.341 132.495 226.045L135.475 222.356C136.234 221.423 138.218 219.882 140.31 220.75C142.478 221.748 143.843 222.54 146.304 224.602C147.702 225.774 147.713 227.64 147.117 228.974C146.542 230.244 145.946 231.513 145.361 232.782C144.277 235.104 143.16 237.513 142.152 239.911C135.226 256.326 128.072 276.007 127.66 297.934Z" fill="#E7DEE1"/>
</g>
</svg>
